G04 EAGLE Gerber RS-274X export*
G75*
%MOMM*%
%FSLAX34Y34*%
%LPD*%
%INBottom Copper*%
%IPPOS*%
%AMOC8*
5,1,8,0,0,1.08239X$1,22.5*%
G01*
%ADD10C,1.879600*%
%ADD11C,1.650000*%
%ADD12C,3.316000*%
%ADD13C,0.762000*%
%ADD14C,0.304800*%

G36*
X231422Y10164D02*
X231422Y10164D01*
X231448Y10162D01*
X231595Y10184D01*
X231742Y10201D01*
X231767Y10209D01*
X231793Y10213D01*
X231931Y10268D01*
X232070Y10318D01*
X232092Y10332D01*
X232117Y10342D01*
X232238Y10427D01*
X232363Y10507D01*
X232381Y10526D01*
X232403Y10541D01*
X232502Y10651D01*
X232605Y10758D01*
X232619Y10780D01*
X232636Y10800D01*
X232708Y10930D01*
X232784Y11057D01*
X232792Y11082D01*
X232805Y11105D01*
X232845Y11248D01*
X232890Y11389D01*
X232892Y11415D01*
X232900Y11440D01*
X232919Y11684D01*
X232919Y164342D01*
X232902Y164497D01*
X232888Y164651D01*
X232882Y164669D01*
X232879Y164689D01*
X232827Y164835D01*
X232778Y164982D01*
X232768Y164998D01*
X232762Y165017D01*
X232677Y165148D01*
X232597Y165279D01*
X232583Y165293D01*
X232573Y165309D01*
X232461Y165417D01*
X232352Y165528D01*
X232336Y165538D01*
X232322Y165552D01*
X232189Y165631D01*
X232058Y165714D01*
X232040Y165721D01*
X232023Y165731D01*
X231876Y165778D01*
X231729Y165829D01*
X231710Y165831D01*
X231691Y165837D01*
X231537Y165849D01*
X231382Y165866D01*
X231363Y165863D01*
X231344Y165865D01*
X231190Y165842D01*
X231036Y165823D01*
X231018Y165816D01*
X230999Y165813D01*
X230855Y165756D01*
X230709Y165702D01*
X230690Y165690D01*
X230675Y165684D01*
X230639Y165659D01*
X230501Y165575D01*
X229777Y165049D01*
X228103Y164196D01*
X226316Y163615D01*
X226059Y163575D01*
X226059Y174244D01*
X226056Y174270D01*
X226058Y174296D01*
X226036Y174443D01*
X226019Y174590D01*
X226011Y174615D01*
X226007Y174641D01*
X225952Y174778D01*
X225902Y174918D01*
X225888Y174940D01*
X225878Y174965D01*
X225793Y175086D01*
X225713Y175211D01*
X225694Y175229D01*
X225679Y175251D01*
X225569Y175350D01*
X225462Y175453D01*
X225440Y175467D01*
X225420Y175484D01*
X225290Y175556D01*
X225163Y175632D01*
X225138Y175640D01*
X225115Y175653D01*
X224972Y175693D01*
X224831Y175738D01*
X224805Y175740D01*
X224780Y175747D01*
X224536Y175767D01*
X224027Y175767D01*
X224027Y176276D01*
X224024Y176302D01*
X224026Y176328D01*
X224004Y176475D01*
X223987Y176622D01*
X223978Y176647D01*
X223974Y176673D01*
X223920Y176811D01*
X223870Y176950D01*
X223855Y176972D01*
X223846Y176997D01*
X223761Y177118D01*
X223681Y177243D01*
X223662Y177261D01*
X223647Y177283D01*
X223537Y177382D01*
X223430Y177485D01*
X223407Y177499D01*
X223388Y177516D01*
X223258Y177588D01*
X223131Y177664D01*
X223106Y177672D01*
X223083Y177685D01*
X222940Y177725D01*
X222799Y177770D01*
X222773Y177772D01*
X222748Y177780D01*
X222504Y177799D01*
X199136Y177799D01*
X199110Y177796D01*
X199084Y177798D01*
X198937Y177776D01*
X198790Y177759D01*
X198765Y177751D01*
X198739Y177747D01*
X198602Y177692D01*
X198462Y177642D01*
X198440Y177628D01*
X198415Y177618D01*
X198294Y177533D01*
X198169Y177453D01*
X198151Y177434D01*
X198129Y177419D01*
X198030Y177309D01*
X197927Y177202D01*
X197913Y177180D01*
X197896Y177160D01*
X197824Y177030D01*
X197748Y176903D01*
X197740Y176878D01*
X197727Y176855D01*
X197687Y176712D01*
X197642Y176571D01*
X197640Y176545D01*
X197633Y176520D01*
X197613Y176276D01*
X197613Y175767D01*
X197104Y175767D01*
X197078Y175764D01*
X197052Y175766D01*
X196905Y175744D01*
X196758Y175727D01*
X196733Y175718D01*
X196707Y175714D01*
X196569Y175660D01*
X196430Y175610D01*
X196408Y175595D01*
X196383Y175586D01*
X196262Y175501D01*
X196137Y175421D01*
X196119Y175402D01*
X196097Y175387D01*
X195998Y175277D01*
X195895Y175170D01*
X195881Y175147D01*
X195864Y175128D01*
X195792Y174998D01*
X195716Y174871D01*
X195708Y174846D01*
X195695Y174823D01*
X195655Y174680D01*
X195610Y174539D01*
X195607Y174513D01*
X195600Y174488D01*
X195581Y174244D01*
X195581Y163575D01*
X195324Y163615D01*
X193537Y164196D01*
X191863Y165049D01*
X190342Y166154D01*
X189014Y167482D01*
X187909Y169003D01*
X187033Y170723D01*
X187010Y170757D01*
X186994Y170794D01*
X186914Y170902D01*
X186840Y171013D01*
X186810Y171041D01*
X186786Y171074D01*
X186684Y171161D01*
X186586Y171252D01*
X186551Y171273D01*
X186520Y171299D01*
X186401Y171360D01*
X186285Y171428D01*
X186246Y171439D01*
X186210Y171458D01*
X186080Y171490D01*
X185952Y171530D01*
X185911Y171532D01*
X185871Y171542D01*
X185737Y171544D01*
X185604Y171553D01*
X185564Y171547D01*
X185523Y171547D01*
X185392Y171519D01*
X185260Y171497D01*
X185222Y171482D01*
X185182Y171473D01*
X185062Y171416D01*
X184938Y171364D01*
X184904Y171341D01*
X184868Y171323D01*
X184763Y171240D01*
X184654Y171162D01*
X184627Y171131D01*
X184595Y171106D01*
X184513Y171001D01*
X184424Y170900D01*
X184405Y170864D01*
X184379Y170832D01*
X184268Y170614D01*
X183272Y168209D01*
X179771Y164708D01*
X175196Y162813D01*
X171888Y162813D01*
X171762Y162799D01*
X171636Y162792D01*
X171589Y162779D01*
X171541Y162773D01*
X171422Y162731D01*
X171301Y162696D01*
X171259Y162672D01*
X171213Y162656D01*
X171107Y162587D01*
X170997Y162526D01*
X170951Y162486D01*
X170921Y162467D01*
X170887Y162432D01*
X170811Y162367D01*
X155697Y147253D01*
X154016Y146557D01*
X132835Y146557D01*
X132742Y146547D01*
X132649Y146546D01*
X132569Y146527D01*
X132489Y146517D01*
X132401Y146486D01*
X132310Y146464D01*
X132237Y146427D01*
X132161Y146400D01*
X132082Y146349D01*
X131999Y146307D01*
X131910Y146238D01*
X131868Y146211D01*
X131846Y146188D01*
X131806Y146157D01*
X122384Y137521D01*
X122297Y137420D01*
X122204Y137324D01*
X122183Y137289D01*
X122156Y137258D01*
X122094Y137140D01*
X122026Y137025D01*
X122013Y136986D01*
X121994Y136949D01*
X121960Y136820D01*
X121919Y136693D01*
X121916Y136652D01*
X121906Y136612D01*
X121902Y136478D01*
X121891Y136346D01*
X121897Y136305D01*
X121896Y136264D01*
X121923Y136133D01*
X121943Y136001D01*
X121958Y135963D01*
X121967Y135922D01*
X122023Y135801D01*
X122072Y135677D01*
X122095Y135643D01*
X122113Y135606D01*
X122195Y135500D01*
X122271Y135391D01*
X122301Y135364D01*
X122327Y135331D01*
X122431Y135247D01*
X122529Y135158D01*
X122566Y135138D01*
X122598Y135112D01*
X122718Y135054D01*
X122835Y134989D01*
X122874Y134978D01*
X122911Y134960D01*
X123042Y134931D01*
X123170Y134894D01*
X123221Y134890D01*
X123252Y134883D01*
X123301Y134884D01*
X123414Y134875D01*
X126332Y134875D01*
X128853Y133831D01*
X129649Y133035D01*
X129748Y132956D01*
X129842Y132872D01*
X129884Y132848D01*
X129922Y132818D01*
X130036Y132764D01*
X130147Y132703D01*
X130193Y132690D01*
X130237Y132669D01*
X130360Y132643D01*
X130482Y132608D01*
X130543Y132603D01*
X130578Y132596D01*
X130626Y132597D01*
X130726Y132589D01*
X160930Y132589D01*
X162610Y131893D01*
X179137Y115366D01*
X179833Y113686D01*
X179833Y92054D01*
X179137Y90374D01*
X177636Y88873D01*
X167715Y78952D01*
X167636Y78853D01*
X167552Y78759D01*
X167528Y78717D01*
X167498Y78679D01*
X167444Y78565D01*
X167383Y78454D01*
X167370Y78408D01*
X167349Y78364D01*
X167323Y78241D01*
X167288Y78119D01*
X167283Y78058D01*
X167276Y78023D01*
X167277Y77975D01*
X167269Y77875D01*
X167269Y77103D01*
X165549Y72950D01*
X162370Y69771D01*
X158217Y68051D01*
X153723Y68051D01*
X149570Y69771D01*
X146522Y72819D01*
X146502Y72835D01*
X146485Y72855D01*
X146365Y72944D01*
X146249Y73036D01*
X146225Y73047D01*
X146204Y73063D01*
X146068Y73121D01*
X145934Y73185D01*
X145908Y73190D01*
X145884Y73201D01*
X145738Y73227D01*
X145593Y73258D01*
X145567Y73258D01*
X145541Y73262D01*
X145393Y73255D01*
X145245Y73252D01*
X145219Y73246D01*
X145193Y73244D01*
X145051Y73203D01*
X144907Y73167D01*
X144884Y73155D01*
X144858Y73148D01*
X144729Y73075D01*
X144597Y73007D01*
X144577Y72990D01*
X144554Y72978D01*
X144368Y72819D01*
X141320Y69771D01*
X137167Y68051D01*
X133112Y68051D01*
X132986Y68037D01*
X132860Y68030D01*
X132814Y68017D01*
X132766Y68011D01*
X132647Y67969D01*
X132525Y67934D01*
X132483Y67910D01*
X132438Y67894D01*
X132332Y67825D01*
X132221Y67764D01*
X132175Y67724D01*
X132145Y67705D01*
X132139Y67698D01*
X132138Y67698D01*
X132110Y67669D01*
X132035Y67605D01*
X126647Y62218D01*
X126554Y62100D01*
X126457Y61985D01*
X126446Y61963D01*
X126431Y61945D01*
X126367Y61809D01*
X126298Y61675D01*
X126292Y61651D01*
X126282Y61629D01*
X126250Y61483D01*
X126214Y61337D01*
X126214Y61312D01*
X126208Y61289D01*
X126211Y61139D01*
X126209Y60988D01*
X126214Y60964D01*
X126214Y60940D01*
X126251Y60795D01*
X126283Y60648D01*
X126294Y60626D01*
X126299Y60602D01*
X126369Y60468D01*
X126433Y60333D01*
X126448Y60314D01*
X126459Y60292D01*
X126557Y60178D01*
X126650Y60060D01*
X126669Y60045D01*
X126685Y60027D01*
X126806Y59938D01*
X126924Y59845D01*
X126950Y59831D01*
X126965Y59820D01*
X127009Y59801D01*
X127142Y59733D01*
X133039Y57290D01*
X138560Y51769D01*
X141549Y44554D01*
X141549Y36746D01*
X138560Y29531D01*
X133039Y24010D01*
X125824Y21021D01*
X118016Y21021D01*
X110801Y24010D01*
X105280Y29531D01*
X102291Y36746D01*
X102291Y44554D01*
X105081Y51290D01*
X105095Y51339D01*
X105117Y51384D01*
X105143Y51505D01*
X105177Y51625D01*
X105179Y51676D01*
X105190Y51725D01*
X105188Y51849D01*
X105194Y51973D01*
X105185Y52023D01*
X105184Y52073D01*
X105154Y52194D01*
X105131Y52316D01*
X105111Y52362D01*
X105099Y52411D01*
X105042Y52522D01*
X104992Y52636D01*
X104962Y52676D01*
X104939Y52721D01*
X104859Y52816D01*
X104785Y52915D01*
X104746Y52948D01*
X104714Y52986D01*
X104613Y53060D01*
X104519Y53141D01*
X104474Y53164D01*
X104433Y53193D01*
X104319Y53243D01*
X104208Y53299D01*
X104159Y53312D01*
X104113Y53331D01*
X103991Y53354D01*
X103870Y53384D01*
X103820Y53384D01*
X103770Y53393D01*
X103646Y53387D01*
X103522Y53389D01*
X103472Y53378D01*
X103422Y53375D01*
X103303Y53341D01*
X103181Y53314D01*
X103136Y53293D01*
X103087Y53279D01*
X102979Y53218D01*
X102866Y53165D01*
X102827Y53133D01*
X102783Y53109D01*
X102597Y52950D01*
X98071Y48424D01*
X96570Y46923D01*
X94890Y46227D01*
X94658Y46227D01*
X94532Y46213D01*
X94406Y46206D01*
X94360Y46193D01*
X94312Y46187D01*
X94193Y46145D01*
X94071Y46110D01*
X94029Y46086D01*
X93984Y46070D01*
X93877Y46001D01*
X93767Y45940D01*
X93721Y45900D01*
X93691Y45881D01*
X93657Y45846D01*
X93581Y45781D01*
X92785Y44985D01*
X90264Y43941D01*
X87536Y43941D01*
X85015Y44985D01*
X83085Y46915D01*
X82041Y49436D01*
X82041Y52164D01*
X82918Y54281D01*
X82959Y54426D01*
X83005Y54569D01*
X83007Y54593D01*
X83014Y54616D01*
X83021Y54767D01*
X83033Y54916D01*
X83030Y54940D01*
X83031Y54964D01*
X83004Y55112D01*
X82981Y55261D01*
X82973Y55283D01*
X82968Y55307D01*
X82908Y55445D01*
X82853Y55585D01*
X82839Y55605D01*
X82829Y55627D01*
X82739Y55748D01*
X82654Y55871D01*
X82636Y55887D01*
X82621Y55907D01*
X82506Y56004D01*
X82395Y56104D01*
X82374Y56116D01*
X82355Y56132D01*
X82222Y56200D01*
X82090Y56273D01*
X82067Y56279D01*
X82045Y56290D01*
X81900Y56327D01*
X81755Y56368D01*
X81725Y56370D01*
X81707Y56375D01*
X81660Y56375D01*
X81511Y56387D01*
X77830Y56387D01*
X76150Y57083D01*
X41843Y91390D01*
X41147Y93070D01*
X41147Y162664D01*
X41139Y162740D01*
X41140Y162816D01*
X41119Y162913D01*
X41107Y163010D01*
X41082Y163082D01*
X41065Y163157D01*
X41023Y163246D01*
X40990Y163338D01*
X40948Y163403D01*
X40916Y163472D01*
X40854Y163549D01*
X40801Y163631D01*
X40746Y163684D01*
X40698Y163744D01*
X40621Y163805D01*
X40550Y163873D01*
X40485Y163913D01*
X40425Y163960D01*
X40291Y164028D01*
X40251Y164052D01*
X40233Y164058D01*
X40207Y164071D01*
X38669Y164708D01*
X35168Y168209D01*
X34427Y169998D01*
X34379Y170086D01*
X34338Y170178D01*
X34294Y170238D01*
X34258Y170303D01*
X34191Y170377D01*
X34131Y170458D01*
X34074Y170506D01*
X34024Y170561D01*
X33941Y170618D01*
X33865Y170683D01*
X33798Y170717D01*
X33737Y170759D01*
X33644Y170796D01*
X33554Y170842D01*
X33482Y170860D01*
X33413Y170887D01*
X33314Y170902D01*
X33216Y170926D01*
X33142Y170927D01*
X33068Y170938D01*
X32968Y170929D01*
X32868Y170931D01*
X32795Y170915D01*
X32721Y170909D01*
X32625Y170878D01*
X32527Y170857D01*
X32460Y170825D01*
X32389Y170802D01*
X32303Y170750D01*
X32212Y170707D01*
X32154Y170660D01*
X32091Y170622D01*
X32019Y170552D01*
X31940Y170489D01*
X31894Y170431D01*
X31841Y170379D01*
X31786Y170295D01*
X31724Y170216D01*
X31678Y170126D01*
X31652Y170086D01*
X31640Y170052D01*
X31613Y169998D01*
X30872Y168209D01*
X27371Y164708D01*
X22796Y162813D01*
X17844Y162813D01*
X13269Y164708D01*
X12761Y165217D01*
X12683Y165279D01*
X12610Y165349D01*
X12546Y165387D01*
X12488Y165433D01*
X12397Y165476D01*
X12311Y165528D01*
X12240Y165550D01*
X12173Y165582D01*
X12075Y165603D01*
X11979Y165634D01*
X11905Y165640D01*
X11832Y165656D01*
X11732Y165654D01*
X11632Y165662D01*
X11558Y165651D01*
X11484Y165650D01*
X11387Y165625D01*
X11287Y165610D01*
X11218Y165583D01*
X11146Y165565D01*
X11057Y165519D01*
X10963Y165481D01*
X10902Y165439D01*
X10836Y165405D01*
X10759Y165340D01*
X10677Y165283D01*
X10627Y165227D01*
X10571Y165179D01*
X10511Y165098D01*
X10444Y165024D01*
X10408Y164959D01*
X10363Y164899D01*
X10324Y164807D01*
X10275Y164719D01*
X10255Y164647D01*
X10225Y164579D01*
X10208Y164480D01*
X10180Y164383D01*
X10172Y164283D01*
X10164Y164236D01*
X10166Y164200D01*
X10161Y164140D01*
X10161Y11684D01*
X10164Y11658D01*
X10162Y11632D01*
X10184Y11485D01*
X10201Y11338D01*
X10209Y11313D01*
X10213Y11287D01*
X10268Y11149D01*
X10318Y11010D01*
X10332Y10988D01*
X10342Y10963D01*
X10427Y10842D01*
X10507Y10717D01*
X10526Y10699D01*
X10541Y10677D01*
X10651Y10578D01*
X10758Y10475D01*
X10780Y10461D01*
X10800Y10444D01*
X10930Y10372D01*
X11057Y10296D01*
X11082Y10288D01*
X11105Y10275D01*
X11248Y10235D01*
X11389Y10190D01*
X11415Y10188D01*
X11440Y10180D01*
X11684Y10161D01*
X231396Y10161D01*
X231422Y10164D01*
G37*
G36*
X84095Y65538D02*
X84095Y65538D01*
X84145Y65536D01*
X84268Y65558D01*
X84391Y65573D01*
X84439Y65590D01*
X84488Y65599D01*
X84602Y65648D01*
X84719Y65690D01*
X84762Y65717D01*
X84808Y65737D01*
X84908Y65812D01*
X85012Y65879D01*
X85047Y65915D01*
X85088Y65945D01*
X85168Y66040D01*
X85254Y66130D01*
X85280Y66173D01*
X85313Y66211D01*
X85369Y66322D01*
X85433Y66429D01*
X85448Y66477D01*
X85471Y66522D01*
X85501Y66642D01*
X85539Y66761D01*
X85543Y66811D01*
X85556Y66860D01*
X85557Y66984D01*
X85567Y67108D01*
X85560Y67158D01*
X85561Y67208D01*
X85534Y67330D01*
X85516Y67453D01*
X85497Y67500D01*
X85486Y67549D01*
X85433Y67661D01*
X85387Y67777D01*
X85358Y67818D01*
X85337Y67864D01*
X85259Y67961D01*
X85188Y68063D01*
X85151Y68097D01*
X85119Y68136D01*
X85022Y68213D01*
X84929Y68296D01*
X84885Y68321D01*
X84846Y68352D01*
X84628Y68463D01*
X81470Y69771D01*
X78291Y72950D01*
X76571Y77103D01*
X76571Y81597D01*
X78291Y85750D01*
X81470Y88929D01*
X85306Y90518D01*
X85446Y90595D01*
X85587Y90670D01*
X85598Y90680D01*
X85610Y90687D01*
X85729Y90794D01*
X85849Y90899D01*
X85858Y90911D01*
X85869Y90921D01*
X85960Y91053D01*
X86053Y91182D01*
X86059Y91196D01*
X86067Y91208D01*
X86125Y91356D01*
X86187Y91504D01*
X86189Y91519D01*
X86195Y91532D01*
X86218Y91690D01*
X86244Y91848D01*
X86243Y91862D01*
X86245Y91877D01*
X86232Y92036D01*
X86222Y92196D01*
X86218Y92210D01*
X86217Y92224D01*
X86167Y92376D01*
X86121Y92529D01*
X86114Y92542D01*
X86109Y92556D01*
X86027Y92693D01*
X85947Y92831D01*
X85937Y92842D01*
X85930Y92854D01*
X85818Y92969D01*
X85709Y93086D01*
X85697Y93094D01*
X85687Y93104D01*
X85552Y93191D01*
X85419Y93280D01*
X85404Y93286D01*
X85394Y93293D01*
X85357Y93305D01*
X85194Y93374D01*
X83728Y93850D01*
X82214Y94621D01*
X80840Y95619D01*
X79639Y96820D01*
X78641Y98194D01*
X77870Y99708D01*
X77417Y101101D01*
X86644Y101101D01*
X86670Y101104D01*
X86696Y101102D01*
X86843Y101124D01*
X86990Y101141D01*
X87015Y101149D01*
X87041Y101153D01*
X87178Y101208D01*
X87318Y101258D01*
X87340Y101272D01*
X87365Y101282D01*
X87486Y101367D01*
X87611Y101447D01*
X87629Y101466D01*
X87651Y101481D01*
X87750Y101591D01*
X87853Y101698D01*
X87867Y101720D01*
X87884Y101740D01*
X87956Y101870D01*
X88032Y101997D01*
X88040Y102022D01*
X88053Y102045D01*
X88093Y102188D01*
X88138Y102329D01*
X88140Y102355D01*
X88147Y102380D01*
X88167Y102624D01*
X88167Y103553D01*
X89096Y103553D01*
X89122Y103556D01*
X89148Y103554D01*
X89295Y103576D01*
X89442Y103593D01*
X89467Y103602D01*
X89493Y103606D01*
X89631Y103660D01*
X89770Y103710D01*
X89792Y103725D01*
X89817Y103734D01*
X89938Y103819D01*
X90063Y103899D01*
X90081Y103918D01*
X90103Y103933D01*
X90202Y104043D01*
X90305Y104150D01*
X90319Y104173D01*
X90336Y104192D01*
X90408Y104322D01*
X90484Y104449D01*
X90492Y104474D01*
X90505Y104497D01*
X90545Y104640D01*
X90590Y104781D01*
X90592Y104807D01*
X90600Y104832D01*
X90619Y105076D01*
X90619Y114303D01*
X92012Y113850D01*
X93526Y113079D01*
X94900Y112081D01*
X96101Y110880D01*
X97099Y109506D01*
X97870Y107992D01*
X98395Y106377D01*
X98594Y105123D01*
X98608Y105070D01*
X98615Y105015D01*
X98655Y104903D01*
X98687Y104788D01*
X98714Y104739D01*
X98732Y104687D01*
X98797Y104587D01*
X98854Y104482D01*
X98891Y104441D01*
X98921Y104395D01*
X99007Y104311D01*
X99087Y104222D01*
X99132Y104191D01*
X99172Y104152D01*
X99274Y104091D01*
X99372Y104022D01*
X99424Y104002D01*
X99471Y103974D01*
X99585Y103937D01*
X99696Y103892D01*
X99750Y103884D01*
X99803Y103867D01*
X99922Y103858D01*
X100040Y103840D01*
X100095Y103844D01*
X100150Y103839D01*
X100269Y103857D01*
X100388Y103866D01*
X100440Y103883D01*
X100495Y103891D01*
X100606Y103935D01*
X100720Y103971D01*
X100767Y103999D01*
X100819Y104020D01*
X100917Y104088D01*
X101020Y104149D01*
X101060Y104187D01*
X101105Y104219D01*
X101185Y104307D01*
X101271Y104390D01*
X101301Y104436D01*
X101338Y104477D01*
X101396Y104582D01*
X101461Y104682D01*
X101480Y104734D01*
X101507Y104782D01*
X101539Y104897D01*
X101580Y105010D01*
X101587Y105065D01*
X101602Y105118D01*
X101620Y105344D01*
X101621Y105356D01*
X101621Y105359D01*
X101621Y105362D01*
X101621Y106097D01*
X103341Y110250D01*
X106520Y113429D01*
X110673Y115149D01*
X115167Y115149D01*
X119320Y113429D01*
X122499Y110250D01*
X122513Y110216D01*
X122561Y110128D01*
X122602Y110036D01*
X122646Y109976D01*
X122682Y109912D01*
X122749Y109837D01*
X122809Y109757D01*
X122866Y109708D01*
X122916Y109653D01*
X122999Y109596D01*
X123075Y109531D01*
X123142Y109497D01*
X123203Y109455D01*
X123296Y109418D01*
X123386Y109373D01*
X123458Y109355D01*
X123527Y109327D01*
X123626Y109313D01*
X123724Y109289D01*
X123798Y109287D01*
X123872Y109277D01*
X123972Y109285D01*
X124072Y109284D01*
X124145Y109299D01*
X124219Y109306D01*
X124315Y109336D01*
X124413Y109358D01*
X124480Y109390D01*
X124551Y109413D01*
X124637Y109464D01*
X124728Y109508D01*
X124786Y109554D01*
X124849Y109592D01*
X124921Y109662D01*
X125000Y109725D01*
X125046Y109783D01*
X125099Y109835D01*
X125154Y109920D01*
X125216Y109999D01*
X125262Y110088D01*
X125288Y110128D01*
X125300Y110162D01*
X125327Y110216D01*
X125341Y110250D01*
X128520Y113429D01*
X132673Y115149D01*
X137167Y115149D01*
X141320Y113429D01*
X144368Y110381D01*
X144388Y110365D01*
X144405Y110345D01*
X144525Y110256D01*
X144641Y110164D01*
X144665Y110153D01*
X144686Y110137D01*
X144822Y110079D01*
X144956Y110015D01*
X144982Y110010D01*
X145006Y109999D01*
X145152Y109973D01*
X145297Y109942D01*
X145323Y109942D01*
X145349Y109938D01*
X145497Y109945D01*
X145645Y109948D01*
X145671Y109954D01*
X145697Y109956D01*
X145839Y109997D01*
X145983Y110033D01*
X146006Y110045D01*
X146032Y110052D01*
X146161Y110125D01*
X146293Y110193D01*
X146313Y110210D01*
X146336Y110222D01*
X146522Y110381D01*
X149570Y113429D01*
X153723Y115149D01*
X158217Y115149D01*
X162370Y113429D01*
X165549Y110250D01*
X167269Y106097D01*
X167269Y101603D01*
X165549Y97450D01*
X162370Y94271D01*
X159318Y93007D01*
X159231Y92958D01*
X159139Y92918D01*
X159079Y92874D01*
X159014Y92838D01*
X158939Y92771D01*
X158859Y92711D01*
X158811Y92654D01*
X158756Y92604D01*
X158698Y92521D01*
X158634Y92445D01*
X158600Y92378D01*
X158557Y92317D01*
X158521Y92224D01*
X158475Y92134D01*
X158457Y92062D01*
X158430Y91993D01*
X158415Y91894D01*
X158391Y91796D01*
X158390Y91722D01*
X158379Y91648D01*
X158387Y91548D01*
X158386Y91448D01*
X158402Y91375D01*
X158408Y91301D01*
X158439Y91205D01*
X158460Y91107D01*
X158492Y91040D01*
X158515Y90969D01*
X158567Y90883D01*
X158610Y90792D01*
X158656Y90734D01*
X158695Y90671D01*
X158764Y90599D01*
X158827Y90520D01*
X158886Y90474D01*
X158937Y90421D01*
X159022Y90366D01*
X159101Y90304D01*
X159190Y90258D01*
X159231Y90232D01*
X159264Y90220D01*
X159318Y90193D01*
X162370Y88929D01*
X162487Y88812D01*
X162507Y88796D01*
X162524Y88776D01*
X162644Y88687D01*
X162760Y88595D01*
X162784Y88584D01*
X162805Y88568D01*
X162941Y88510D01*
X163075Y88446D01*
X163101Y88441D01*
X163125Y88430D01*
X163271Y88404D01*
X163416Y88373D01*
X163442Y88373D01*
X163468Y88369D01*
X163616Y88376D01*
X163764Y88379D01*
X163790Y88385D01*
X163816Y88387D01*
X163958Y88428D01*
X164102Y88464D01*
X164125Y88476D01*
X164151Y88483D01*
X164280Y88556D01*
X164412Y88624D01*
X164432Y88641D01*
X164455Y88653D01*
X164641Y88812D01*
X170241Y94412D01*
X170307Y94495D01*
X170347Y94537D01*
X170356Y94551D01*
X170404Y94605D01*
X170428Y94647D01*
X170458Y94685D01*
X170512Y94799D01*
X170573Y94910D01*
X170586Y94956D01*
X170607Y95000D01*
X170633Y95123D01*
X170668Y95245D01*
X170673Y95306D01*
X170680Y95341D01*
X170679Y95389D01*
X170687Y95489D01*
X170687Y110251D01*
X170673Y110377D01*
X170666Y110503D01*
X170653Y110549D01*
X170647Y110597D01*
X170605Y110716D01*
X170570Y110838D01*
X170546Y110880D01*
X170530Y110925D01*
X170461Y111032D01*
X170400Y111142D01*
X170360Y111188D01*
X170341Y111218D01*
X170306Y111252D01*
X170241Y111328D01*
X158572Y122997D01*
X158473Y123076D01*
X158379Y123160D01*
X158337Y123184D01*
X158299Y123214D01*
X158185Y123268D01*
X158074Y123329D01*
X158028Y123342D01*
X157984Y123363D01*
X157861Y123389D01*
X157739Y123424D01*
X157678Y123429D01*
X157643Y123436D01*
X157595Y123435D01*
X157495Y123443D01*
X130726Y123443D01*
X130600Y123429D01*
X130474Y123422D01*
X130428Y123409D01*
X130380Y123403D01*
X130261Y123361D01*
X130139Y123326D01*
X130097Y123302D01*
X130052Y123286D01*
X129945Y123217D01*
X129835Y123156D01*
X129789Y123116D01*
X129759Y123097D01*
X129725Y123062D01*
X129649Y122997D01*
X128853Y122201D01*
X126332Y121157D01*
X123604Y121157D01*
X121083Y122201D01*
X119153Y124131D01*
X118109Y126652D01*
X118109Y129380D01*
X118298Y129835D01*
X118303Y129852D01*
X118311Y129867D01*
X118350Y130020D01*
X118393Y130171D01*
X118394Y130188D01*
X118399Y130204D01*
X118403Y130362D01*
X118410Y130519D01*
X118407Y130535D01*
X118408Y130553D01*
X118376Y130707D01*
X118348Y130861D01*
X118341Y130877D01*
X118338Y130894D01*
X118272Y131037D01*
X118209Y131181D01*
X118199Y131195D01*
X118192Y131211D01*
X118095Y131334D01*
X118001Y131461D01*
X117988Y131472D01*
X117977Y131486D01*
X117855Y131585D01*
X117735Y131686D01*
X117720Y131694D01*
X117706Y131705D01*
X117564Y131773D01*
X117425Y131845D01*
X117408Y131849D01*
X117393Y131856D01*
X117239Y131891D01*
X117087Y131929D01*
X117070Y131929D01*
X117053Y131933D01*
X116896Y131932D01*
X116738Y131934D01*
X116721Y131930D01*
X116704Y131930D01*
X116551Y131893D01*
X116398Y131860D01*
X116382Y131852D01*
X116365Y131848D01*
X116225Y131777D01*
X116083Y131710D01*
X116070Y131699D01*
X116054Y131691D01*
X115861Y131541D01*
X111493Y127537D01*
X111388Y127416D01*
X111282Y127298D01*
X111274Y127285D01*
X111264Y127273D01*
X111190Y127132D01*
X111113Y126993D01*
X111109Y126978D01*
X111102Y126965D01*
X111062Y126811D01*
X111018Y126658D01*
X111017Y126640D01*
X111014Y126628D01*
X111013Y126589D01*
X110999Y126414D01*
X110999Y125636D01*
X109955Y123115D01*
X108025Y121185D01*
X105504Y120141D01*
X102776Y120141D01*
X100255Y121185D01*
X98325Y123115D01*
X97281Y125636D01*
X97281Y128364D01*
X98325Y130885D01*
X100255Y132815D01*
X102776Y133859D01*
X104263Y133859D01*
X104355Y133869D01*
X104449Y133870D01*
X104528Y133889D01*
X104609Y133899D01*
X104697Y133930D01*
X104788Y133952D01*
X104860Y133989D01*
X104937Y134016D01*
X105015Y134067D01*
X105099Y134109D01*
X105188Y134178D01*
X105230Y134205D01*
X105251Y134228D01*
X105292Y134259D01*
X127276Y154411D01*
X127293Y154431D01*
X127324Y154457D01*
X127914Y155047D01*
X127974Y155077D01*
X128004Y155101D01*
X128774Y155381D01*
X128797Y155393D01*
X128836Y155405D01*
X129607Y155725D01*
X129674Y155730D01*
X129710Y155740D01*
X130530Y155704D01*
X130555Y155706D01*
X130596Y155703D01*
X150582Y155703D01*
X150707Y155717D01*
X150833Y155724D01*
X150880Y155737D01*
X150928Y155743D01*
X151047Y155785D01*
X151168Y155820D01*
X151210Y155844D01*
X151256Y155860D01*
X151362Y155929D01*
X151472Y155990D01*
X151519Y156030D01*
X151549Y156049D01*
X151582Y156084D01*
X151659Y156149D01*
X161903Y166393D01*
X161950Y166453D01*
X162005Y166506D01*
X162058Y166589D01*
X162119Y166666D01*
X162152Y166735D01*
X162193Y166799D01*
X162226Y166892D01*
X162268Y166981D01*
X162284Y167056D01*
X162310Y167128D01*
X162321Y167226D01*
X162342Y167322D01*
X162340Y167398D01*
X162349Y167474D01*
X162337Y167572D01*
X162336Y167670D01*
X162317Y167744D01*
X162308Y167820D01*
X162262Y167962D01*
X162251Y168008D01*
X162242Y168025D01*
X162233Y168053D01*
X161427Y169998D01*
X161379Y170086D01*
X161338Y170178D01*
X161294Y170238D01*
X161258Y170303D01*
X161191Y170377D01*
X161131Y170458D01*
X161074Y170506D01*
X161024Y170561D01*
X160941Y170618D01*
X160865Y170683D01*
X160798Y170717D01*
X160737Y170759D01*
X160644Y170796D01*
X160554Y170842D01*
X160482Y170860D01*
X160413Y170887D01*
X160314Y170902D01*
X160216Y170926D01*
X160142Y170927D01*
X160068Y170938D01*
X159968Y170929D01*
X159868Y170931D01*
X159795Y170915D01*
X159721Y170909D01*
X159625Y170878D01*
X159527Y170857D01*
X159460Y170825D01*
X159389Y170802D01*
X159303Y170750D01*
X159212Y170707D01*
X159154Y170660D01*
X159091Y170622D01*
X159019Y170552D01*
X158940Y170489D01*
X158894Y170431D01*
X158841Y170379D01*
X158786Y170295D01*
X158724Y170216D01*
X158678Y170126D01*
X158652Y170086D01*
X158640Y170052D01*
X158613Y169998D01*
X157872Y168209D01*
X154371Y164708D01*
X149796Y162813D01*
X144844Y162813D01*
X140269Y164708D01*
X136768Y168209D01*
X136027Y169998D01*
X135979Y170086D01*
X135938Y170178D01*
X135894Y170238D01*
X135858Y170303D01*
X135791Y170377D01*
X135731Y170458D01*
X135674Y170506D01*
X135624Y170561D01*
X135541Y170618D01*
X135465Y170683D01*
X135398Y170717D01*
X135337Y170759D01*
X135244Y170796D01*
X135154Y170842D01*
X135082Y170860D01*
X135013Y170887D01*
X134914Y170902D01*
X134816Y170926D01*
X134742Y170927D01*
X134668Y170938D01*
X134568Y170929D01*
X134468Y170931D01*
X134395Y170915D01*
X134321Y170909D01*
X134225Y170878D01*
X134127Y170857D01*
X134060Y170825D01*
X133989Y170802D01*
X133903Y170750D01*
X133812Y170707D01*
X133754Y170660D01*
X133691Y170622D01*
X133619Y170552D01*
X133540Y170489D01*
X133494Y170431D01*
X133441Y170379D01*
X133386Y170295D01*
X133324Y170216D01*
X133278Y170126D01*
X133252Y170086D01*
X133240Y170052D01*
X133213Y169998D01*
X132472Y168209D01*
X128971Y164708D01*
X124396Y162813D01*
X124191Y162813D01*
X124065Y162799D01*
X123939Y162792D01*
X123893Y162779D01*
X123845Y162773D01*
X123726Y162731D01*
X123604Y162696D01*
X123562Y162672D01*
X123517Y162656D01*
X123410Y162587D01*
X123300Y162526D01*
X123254Y162486D01*
X123224Y162467D01*
X123190Y162432D01*
X123114Y162367D01*
X94681Y133934D01*
X94602Y133835D01*
X94518Y133741D01*
X94494Y133699D01*
X94464Y133661D01*
X94410Y133547D01*
X94349Y133436D01*
X94336Y133390D01*
X94315Y133346D01*
X94289Y133223D01*
X94254Y133101D01*
X94249Y133040D01*
X94242Y133005D01*
X94243Y132957D01*
X94235Y132857D01*
X94235Y131732D01*
X93191Y129211D01*
X91261Y127281D01*
X88740Y126237D01*
X86012Y126237D01*
X83491Y127281D01*
X81561Y129211D01*
X80517Y131732D01*
X80517Y134460D01*
X81561Y136981D01*
X83491Y138911D01*
X86012Y139955D01*
X87137Y139955D01*
X87263Y139969D01*
X87389Y139976D01*
X87435Y139989D01*
X87483Y139995D01*
X87602Y140037D01*
X87724Y140072D01*
X87766Y140096D01*
X87811Y140112D01*
X87918Y140181D01*
X88028Y140242D01*
X88074Y140282D01*
X88104Y140301D01*
X88138Y140336D01*
X88214Y140401D01*
X112618Y164805D01*
X112635Y164826D01*
X112655Y164843D01*
X112743Y164962D01*
X112835Y165078D01*
X112846Y165102D01*
X112862Y165123D01*
X112921Y165259D01*
X112984Y165393D01*
X112989Y165419D01*
X113000Y165443D01*
X113026Y165589D01*
X113057Y165734D01*
X113057Y165760D01*
X113061Y165786D01*
X113054Y165935D01*
X113051Y166082D01*
X113045Y166108D01*
X113044Y166134D01*
X113002Y166277D01*
X112966Y166420D01*
X112954Y166444D01*
X112947Y166469D01*
X112875Y166598D01*
X112807Y166730D01*
X112790Y166750D01*
X112777Y166773D01*
X112618Y166959D01*
X111368Y168209D01*
X110627Y169998D01*
X110579Y170086D01*
X110538Y170178D01*
X110494Y170238D01*
X110458Y170303D01*
X110391Y170377D01*
X110331Y170458D01*
X110274Y170506D01*
X110224Y170561D01*
X110141Y170618D01*
X110065Y170683D01*
X109998Y170717D01*
X109937Y170759D01*
X109844Y170796D01*
X109754Y170842D01*
X109682Y170860D01*
X109613Y170887D01*
X109514Y170902D01*
X109416Y170926D01*
X109342Y170927D01*
X109268Y170938D01*
X109168Y170929D01*
X109068Y170931D01*
X108995Y170915D01*
X108921Y170909D01*
X108825Y170878D01*
X108727Y170857D01*
X108660Y170825D01*
X108589Y170802D01*
X108503Y170750D01*
X108412Y170707D01*
X108354Y170660D01*
X108291Y170622D01*
X108219Y170552D01*
X108140Y170489D01*
X108094Y170431D01*
X108041Y170379D01*
X107986Y170295D01*
X107924Y170216D01*
X107878Y170126D01*
X107852Y170086D01*
X107840Y170052D01*
X107813Y169998D01*
X107072Y168209D01*
X103571Y164708D01*
X98996Y162813D01*
X94044Y162813D01*
X89469Y164708D01*
X85968Y168209D01*
X85227Y169998D01*
X85179Y170086D01*
X85138Y170178D01*
X85094Y170238D01*
X85058Y170303D01*
X84991Y170377D01*
X84931Y170458D01*
X84874Y170506D01*
X84824Y170561D01*
X84741Y170618D01*
X84665Y170683D01*
X84598Y170717D01*
X84537Y170759D01*
X84444Y170796D01*
X84354Y170842D01*
X84282Y170860D01*
X84213Y170887D01*
X84114Y170902D01*
X84016Y170926D01*
X83942Y170927D01*
X83868Y170938D01*
X83768Y170929D01*
X83668Y170931D01*
X83595Y170915D01*
X83521Y170909D01*
X83425Y170878D01*
X83327Y170857D01*
X83260Y170825D01*
X83189Y170802D01*
X83103Y170750D01*
X83012Y170707D01*
X82954Y170660D01*
X82891Y170622D01*
X82819Y170552D01*
X82740Y170489D01*
X82694Y170431D01*
X82641Y170379D01*
X82586Y170295D01*
X82524Y170216D01*
X82478Y170126D01*
X82452Y170086D01*
X82440Y170052D01*
X82413Y169998D01*
X81672Y168209D01*
X78171Y164708D01*
X73596Y162813D01*
X68644Y162813D01*
X64069Y164708D01*
X60568Y168209D01*
X59827Y169998D01*
X59779Y170086D01*
X59738Y170178D01*
X59694Y170238D01*
X59658Y170303D01*
X59591Y170377D01*
X59531Y170458D01*
X59474Y170506D01*
X59424Y170561D01*
X59341Y170618D01*
X59265Y170683D01*
X59198Y170717D01*
X59137Y170759D01*
X59044Y170796D01*
X58954Y170842D01*
X58882Y170860D01*
X58813Y170887D01*
X58714Y170902D01*
X58616Y170926D01*
X58542Y170927D01*
X58468Y170938D01*
X58368Y170929D01*
X58268Y170931D01*
X58195Y170915D01*
X58121Y170909D01*
X58025Y170878D01*
X57927Y170857D01*
X57860Y170825D01*
X57789Y170802D01*
X57703Y170750D01*
X57612Y170707D01*
X57554Y170660D01*
X57491Y170622D01*
X57419Y170552D01*
X57340Y170489D01*
X57294Y170431D01*
X57241Y170379D01*
X57186Y170295D01*
X57124Y170216D01*
X57078Y170126D01*
X57052Y170086D01*
X57040Y170052D01*
X57013Y169998D01*
X56272Y168209D01*
X52771Y164708D01*
X51233Y164071D01*
X51166Y164034D01*
X51095Y164006D01*
X51015Y163950D01*
X50928Y163902D01*
X50872Y163851D01*
X50809Y163807D01*
X50743Y163734D01*
X50670Y163668D01*
X50627Y163605D01*
X50576Y163548D01*
X50528Y163462D01*
X50472Y163381D01*
X50444Y163310D01*
X50407Y163243D01*
X50380Y163148D01*
X50344Y163057D01*
X50333Y162981D01*
X50312Y162908D01*
X50300Y162759D01*
X50293Y162712D01*
X50295Y162693D01*
X50293Y162664D01*
X50293Y96505D01*
X50307Y96379D01*
X50314Y96253D01*
X50327Y96207D01*
X50333Y96159D01*
X50375Y96040D01*
X50410Y95918D01*
X50434Y95876D01*
X50450Y95831D01*
X50519Y95724D01*
X50580Y95614D01*
X50620Y95568D01*
X50639Y95538D01*
X50674Y95504D01*
X50739Y95428D01*
X80188Y65979D01*
X80287Y65900D01*
X80381Y65816D01*
X80423Y65792D01*
X80461Y65762D01*
X80575Y65708D01*
X80686Y65647D01*
X80732Y65634D01*
X80776Y65613D01*
X80899Y65587D01*
X81021Y65552D01*
X81082Y65547D01*
X81117Y65540D01*
X81165Y65541D01*
X81265Y65533D01*
X84045Y65533D01*
X84095Y65538D01*
G37*
%LPC*%
G36*
X48016Y29021D02*
X48016Y29021D01*
X40801Y32010D01*
X35280Y37531D01*
X32291Y44746D01*
X32291Y52554D01*
X35280Y59769D01*
X40801Y65290D01*
X48016Y68279D01*
X55824Y68279D01*
X63039Y65290D01*
X68560Y59769D01*
X71549Y52554D01*
X71549Y44746D01*
X68560Y37531D01*
X63039Y32010D01*
X55824Y29021D01*
X48016Y29021D01*
G37*
%LPD*%
%LPC*%
G36*
X188016Y29021D02*
X188016Y29021D01*
X180801Y32010D01*
X175280Y37531D01*
X172291Y44746D01*
X172291Y52554D01*
X175280Y59769D01*
X180801Y65290D01*
X188016Y68279D01*
X195824Y68279D01*
X203039Y65290D01*
X208560Y59769D01*
X211549Y52554D01*
X211549Y44746D01*
X208560Y37531D01*
X203039Y32010D01*
X195824Y29021D01*
X188016Y29021D01*
G37*
%LPD*%
%LPC*%
G36*
X200659Y172721D02*
X200659Y172721D01*
X220981Y172721D01*
X220981Y163575D01*
X220724Y163615D01*
X218937Y164196D01*
X217263Y165049D01*
X215742Y166154D01*
X214414Y167482D01*
X213309Y169003D01*
X212456Y170677D01*
X212269Y171253D01*
X212250Y171295D01*
X212238Y171339D01*
X212177Y171453D01*
X212124Y171570D01*
X212096Y171606D01*
X212075Y171647D01*
X211990Y171744D01*
X211911Y171846D01*
X211875Y171875D01*
X211845Y171909D01*
X211741Y171984D01*
X211640Y172066D01*
X211599Y172086D01*
X211562Y172113D01*
X211443Y172162D01*
X211327Y172219D01*
X211283Y172229D01*
X211241Y172247D01*
X211113Y172268D01*
X210987Y172297D01*
X210942Y172297D01*
X210897Y172304D01*
X210768Y172296D01*
X210639Y172295D01*
X210595Y172285D01*
X210549Y172282D01*
X210426Y172244D01*
X210300Y172214D01*
X210259Y172194D01*
X210216Y172181D01*
X210104Y172117D01*
X209988Y172059D01*
X209953Y172030D01*
X209914Y172007D01*
X209819Y171919D01*
X209720Y171836D01*
X209692Y171800D01*
X209659Y171769D01*
X209587Y171661D01*
X209509Y171559D01*
X209491Y171517D01*
X209465Y171479D01*
X209371Y171253D01*
X209184Y170677D01*
X208331Y169003D01*
X207226Y167482D01*
X205898Y166154D01*
X204377Y165049D01*
X202703Y164196D01*
X200916Y163615D01*
X200659Y163575D01*
X200659Y172721D01*
G37*
%LPD*%
%LPC*%
G36*
X77417Y106599D02*
X77417Y106599D01*
X77870Y107992D01*
X78641Y109506D01*
X79639Y110880D01*
X80840Y112081D01*
X82214Y113079D01*
X83728Y113850D01*
X85121Y114303D01*
X85121Y106599D01*
X77417Y106599D01*
G37*
%LPD*%
D10*
X20320Y175260D03*
X45720Y175260D03*
X71120Y175260D03*
X96520Y175260D03*
X121920Y175260D03*
X147320Y175260D03*
X172720Y175260D03*
X198120Y175260D03*
X223520Y175260D03*
D11*
X87870Y103850D03*
X155970Y79350D03*
X87870Y79350D03*
D12*
X121920Y40650D03*
X51920Y48650D03*
X191920Y48650D03*
D11*
X155970Y103850D03*
X134920Y79350D03*
X109020Y79350D03*
X134920Y103850D03*
X112920Y103850D03*
D13*
X88900Y50800D03*
D14*
X93980Y50800D02*
X108204Y65024D01*
X93980Y50800D02*
X88900Y50800D01*
X108204Y65024D02*
X122987Y65024D01*
X134920Y76957D02*
X134920Y79350D01*
X134920Y76957D02*
X122987Y65024D01*
X45720Y93980D02*
X45720Y175260D01*
X45720Y93980D02*
X78740Y60960D01*
X90630Y60960D01*
X109020Y79350D01*
X156972Y80772D02*
X163068Y80772D01*
X175260Y92964D01*
X175260Y112776D01*
X160020Y128016D01*
X124968Y128016D01*
X156972Y80772D02*
X155970Y79350D01*
D13*
X124968Y128016D03*
D14*
X87376Y133096D02*
X121920Y167640D01*
X121920Y175260D01*
D13*
X87376Y133096D03*
X104140Y127000D03*
D14*
X130464Y151130D01*
X153107Y151130D01*
X172720Y170743D02*
X172720Y175260D01*
X172720Y170743D02*
X153107Y151130D01*
D13*
X30480Y137160D03*
X60960Y137160D03*
M02*
