G04 EAGLE Gerber RS-274X export*
G75*
%MOMM*%
%FSLAX34Y34*%
%LPD*%
%INTop Copper*%
%IPPOS*%
%AMOC8*
5,1,8,0,0,1.08239X$1,22.5*%
G01*
%ADD10C,1.879600*%
%ADD11C,1.650000*%
%ADD12C,3.316000*%
%ADD13C,0.304800*%
%ADD14C,0.762000*%


D10*
X20320Y175260D03*
X45720Y175260D03*
X71120Y175260D03*
X96520Y175260D03*
X121920Y175260D03*
X147320Y175260D03*
X172720Y175260D03*
X198120Y175260D03*
X223520Y175260D03*
D11*
X87870Y103850D03*
X155970Y79350D03*
X87870Y79350D03*
D12*
X121920Y40650D03*
X51920Y48650D03*
X191920Y48650D03*
D11*
X155970Y103850D03*
X134920Y79350D03*
X109020Y79350D03*
X134920Y103850D03*
X112920Y103850D03*
D13*
X21336Y175260D02*
X20320Y175260D01*
X21336Y118364D02*
X88900Y50800D01*
X21336Y118364D02*
X21336Y175260D01*
D14*
X88900Y50800D03*
D13*
X124968Y128016D02*
X107188Y145796D01*
X90932Y145796D01*
X71120Y165608D01*
X71120Y175260D01*
D14*
X124968Y128016D03*
D13*
X136652Y133604D02*
X136652Y105582D01*
X134920Y103850D01*
X136652Y133604D02*
X96520Y173736D01*
X96520Y175260D01*
X87870Y79350D02*
X87782Y79350D01*
X69596Y97536D01*
X69596Y115316D01*
X87376Y133096D01*
D14*
X87376Y133096D03*
D13*
X155448Y105156D02*
X155448Y167640D01*
X147828Y175260D01*
X155448Y105156D02*
X155970Y103850D01*
X147828Y175260D02*
X147320Y175260D01*
D14*
X104140Y127000D03*
D13*
X104140Y112630D01*
X112920Y103850D01*
D14*
X30480Y137160D03*
D13*
X60960Y137160D01*
D14*
X60960Y137160D03*
M02*
