G04 EAGLE Gerber RS-274X export*
G75*
%MOMM*%
%FSLAX34Y34*%
%LPD*%
%INSilkscreen Bottom*%
%IPPOS*%
%AMOC8*
5,1,8,0,0,1.08239X$1,22.5*%
G01*
%ADD10C,0.076200*%


D10*
X182499Y152781D02*
X182499Y162179D01*
X179888Y162179D01*
X179787Y162177D01*
X179686Y162171D01*
X179585Y162161D01*
X179485Y162148D01*
X179385Y162130D01*
X179286Y162109D01*
X179188Y162083D01*
X179091Y162054D01*
X178995Y162022D01*
X178901Y161985D01*
X178808Y161945D01*
X178716Y161901D01*
X178627Y161854D01*
X178539Y161803D01*
X178453Y161749D01*
X178370Y161692D01*
X178288Y161632D01*
X178210Y161568D01*
X178133Y161502D01*
X178060Y161432D01*
X177989Y161360D01*
X177921Y161285D01*
X177856Y161207D01*
X177794Y161127D01*
X177735Y161045D01*
X177679Y160960D01*
X177627Y160874D01*
X177578Y160785D01*
X177532Y160694D01*
X177491Y160602D01*
X177452Y160508D01*
X177418Y160413D01*
X177387Y160317D01*
X177360Y160219D01*
X177336Y160121D01*
X177317Y160021D01*
X177301Y159921D01*
X177289Y159821D01*
X177281Y159720D01*
X177277Y159619D01*
X177277Y159517D01*
X177281Y159416D01*
X177289Y159315D01*
X177301Y159215D01*
X177317Y159115D01*
X177336Y159015D01*
X177360Y158917D01*
X177387Y158819D01*
X177418Y158723D01*
X177452Y158628D01*
X177491Y158534D01*
X177532Y158442D01*
X177578Y158351D01*
X177627Y158263D01*
X177679Y158176D01*
X177735Y158091D01*
X177794Y158009D01*
X177856Y157929D01*
X177921Y157851D01*
X177989Y157776D01*
X178060Y157704D01*
X178133Y157634D01*
X178210Y157568D01*
X178288Y157504D01*
X178370Y157444D01*
X178453Y157387D01*
X178539Y157333D01*
X178627Y157282D01*
X178716Y157235D01*
X178808Y157191D01*
X178901Y157151D01*
X178995Y157114D01*
X179091Y157082D01*
X179188Y157053D01*
X179286Y157027D01*
X179385Y157006D01*
X179485Y156988D01*
X179585Y156975D01*
X179686Y156965D01*
X179787Y156959D01*
X179888Y156957D01*
X179888Y156958D02*
X182499Y156958D01*
X171728Y152781D02*
X169640Y152781D01*
X171728Y152781D02*
X171817Y152783D01*
X171905Y152789D01*
X171993Y152798D01*
X172081Y152811D01*
X172168Y152828D01*
X172254Y152848D01*
X172339Y152873D01*
X172424Y152900D01*
X172507Y152932D01*
X172588Y152966D01*
X172668Y153005D01*
X172746Y153046D01*
X172823Y153091D01*
X172897Y153139D01*
X172970Y153190D01*
X173040Y153244D01*
X173107Y153302D01*
X173173Y153362D01*
X173235Y153424D01*
X173295Y153490D01*
X173353Y153557D01*
X173407Y153627D01*
X173458Y153700D01*
X173506Y153774D01*
X173551Y153851D01*
X173592Y153929D01*
X173631Y154009D01*
X173665Y154090D01*
X173697Y154173D01*
X173724Y154258D01*
X173749Y154343D01*
X173769Y154429D01*
X173786Y154516D01*
X173799Y154604D01*
X173808Y154692D01*
X173814Y154780D01*
X173816Y154869D01*
X173817Y154869D02*
X173817Y160091D01*
X173816Y160091D02*
X173814Y160180D01*
X173808Y160268D01*
X173799Y160356D01*
X173786Y160444D01*
X173769Y160531D01*
X173749Y160617D01*
X173724Y160702D01*
X173697Y160787D01*
X173665Y160870D01*
X173631Y160951D01*
X173592Y161031D01*
X173551Y161109D01*
X173506Y161186D01*
X173458Y161260D01*
X173407Y161333D01*
X173353Y161403D01*
X173295Y161470D01*
X173235Y161536D01*
X173173Y161598D01*
X173107Y161658D01*
X173040Y161716D01*
X172970Y161770D01*
X172897Y161821D01*
X172823Y161869D01*
X172746Y161914D01*
X172668Y161955D01*
X172588Y161994D01*
X172507Y162028D01*
X172424Y162060D01*
X172339Y162087D01*
X172254Y162112D01*
X172168Y162132D01*
X172081Y162149D01*
X171993Y162162D01*
X171905Y162171D01*
X171817Y162177D01*
X171728Y162179D01*
X169640Y162179D01*
X165849Y152781D02*
X161672Y152781D01*
X165849Y152781D02*
X165849Y162179D01*
X161672Y162179D01*
X162716Y158002D02*
X165849Y158002D01*
X151161Y154869D02*
X151161Y162179D01*
X151161Y154869D02*
X151163Y154780D01*
X151169Y154692D01*
X151178Y154604D01*
X151191Y154516D01*
X151208Y154429D01*
X151228Y154343D01*
X151253Y154258D01*
X151280Y154173D01*
X151312Y154090D01*
X151346Y154009D01*
X151385Y153929D01*
X151426Y153851D01*
X151471Y153774D01*
X151519Y153700D01*
X151570Y153627D01*
X151624Y153557D01*
X151682Y153490D01*
X151742Y153424D01*
X151804Y153362D01*
X151870Y153302D01*
X151937Y153244D01*
X152007Y153190D01*
X152080Y153139D01*
X152154Y153091D01*
X152231Y153046D01*
X152309Y153005D01*
X152389Y152966D01*
X152470Y152932D01*
X152553Y152900D01*
X152638Y152873D01*
X152723Y152848D01*
X152809Y152828D01*
X152896Y152811D01*
X152984Y152798D01*
X153072Y152789D01*
X153160Y152783D01*
X153249Y152781D01*
X154293Y152781D01*
X147056Y154869D02*
X147056Y156958D01*
X147054Y157048D01*
X147048Y157137D01*
X147039Y157227D01*
X147025Y157316D01*
X147008Y157404D01*
X146987Y157491D01*
X146962Y157578D01*
X146933Y157663D01*
X146901Y157747D01*
X146866Y157829D01*
X146826Y157910D01*
X146784Y157989D01*
X146738Y158066D01*
X146688Y158141D01*
X146636Y158214D01*
X146580Y158285D01*
X146522Y158353D01*
X146460Y158418D01*
X146396Y158481D01*
X146329Y158541D01*
X146260Y158598D01*
X146188Y158652D01*
X146114Y158703D01*
X146038Y158751D01*
X145960Y158795D01*
X145880Y158836D01*
X145798Y158874D01*
X145715Y158908D01*
X145630Y158938D01*
X145544Y158965D01*
X145458Y158988D01*
X145370Y159007D01*
X145281Y159022D01*
X145192Y159034D01*
X145103Y159042D01*
X145013Y159046D01*
X144923Y159046D01*
X144833Y159042D01*
X144744Y159034D01*
X144655Y159022D01*
X144566Y159007D01*
X144478Y158988D01*
X144392Y158965D01*
X144306Y158938D01*
X144221Y158908D01*
X144138Y158874D01*
X144056Y158836D01*
X143976Y158795D01*
X143898Y158751D01*
X143822Y158703D01*
X143748Y158652D01*
X143676Y158598D01*
X143607Y158541D01*
X143540Y158481D01*
X143476Y158418D01*
X143414Y158353D01*
X143356Y158285D01*
X143300Y158214D01*
X143248Y158141D01*
X143198Y158066D01*
X143152Y157989D01*
X143110Y157910D01*
X143070Y157829D01*
X143035Y157747D01*
X143003Y157663D01*
X142974Y157578D01*
X142949Y157491D01*
X142928Y157404D01*
X142911Y157316D01*
X142897Y157227D01*
X142888Y157137D01*
X142882Y157048D01*
X142880Y156958D01*
X142879Y156958D02*
X142879Y154869D01*
X142880Y154869D02*
X142882Y154779D01*
X142888Y154690D01*
X142897Y154600D01*
X142911Y154511D01*
X142928Y154423D01*
X142949Y154336D01*
X142974Y154249D01*
X143003Y154164D01*
X143035Y154080D01*
X143070Y153998D01*
X143110Y153917D01*
X143152Y153838D01*
X143198Y153761D01*
X143248Y153686D01*
X143300Y153613D01*
X143356Y153542D01*
X143414Y153474D01*
X143476Y153409D01*
X143540Y153346D01*
X143607Y153286D01*
X143676Y153229D01*
X143748Y153175D01*
X143822Y153124D01*
X143898Y153076D01*
X143976Y153032D01*
X144056Y152991D01*
X144138Y152953D01*
X144221Y152919D01*
X144306Y152889D01*
X144392Y152862D01*
X144478Y152839D01*
X144566Y152820D01*
X144655Y152805D01*
X144744Y152793D01*
X144833Y152785D01*
X144923Y152781D01*
X145013Y152781D01*
X145103Y152785D01*
X145192Y152793D01*
X145281Y152805D01*
X145370Y152820D01*
X145458Y152839D01*
X145544Y152862D01*
X145630Y152889D01*
X145715Y152919D01*
X145798Y152953D01*
X145880Y152991D01*
X145960Y153032D01*
X146038Y153076D01*
X146114Y153124D01*
X146188Y153175D01*
X146260Y153229D01*
X146329Y153286D01*
X146396Y153346D01*
X146460Y153409D01*
X146522Y153474D01*
X146580Y153542D01*
X146636Y153613D01*
X146688Y153686D01*
X146738Y153761D01*
X146784Y153838D01*
X146826Y153917D01*
X146866Y153998D01*
X146901Y154080D01*
X146933Y154164D01*
X146962Y154249D01*
X146987Y154336D01*
X147008Y154423D01*
X147025Y154511D01*
X147039Y154600D01*
X147048Y154690D01*
X147054Y154779D01*
X147056Y154869D01*
X139436Y149648D02*
X138392Y149648D01*
X135260Y159046D01*
X139436Y159046D02*
X137348Y152781D01*
X131466Y149648D02*
X131466Y159046D01*
X128856Y159046D01*
X128779Y159044D01*
X128703Y159038D01*
X128626Y159029D01*
X128550Y159016D01*
X128476Y158999D01*
X128401Y158979D01*
X128328Y158954D01*
X128257Y158927D01*
X128186Y158896D01*
X128118Y158861D01*
X128051Y158823D01*
X127986Y158782D01*
X127923Y158738D01*
X127863Y158691D01*
X127804Y158640D01*
X127749Y158587D01*
X127696Y158532D01*
X127645Y158473D01*
X127598Y158413D01*
X127554Y158350D01*
X127513Y158285D01*
X127475Y158218D01*
X127440Y158150D01*
X127409Y158079D01*
X127382Y158008D01*
X127357Y157935D01*
X127337Y157861D01*
X127320Y157786D01*
X127307Y157710D01*
X127298Y157634D01*
X127292Y157557D01*
X127290Y157480D01*
X127289Y157480D02*
X127289Y154347D01*
X127291Y154270D01*
X127297Y154194D01*
X127306Y154117D01*
X127319Y154041D01*
X127336Y153966D01*
X127356Y153892D01*
X127381Y153819D01*
X127408Y153748D01*
X127439Y153677D01*
X127474Y153609D01*
X127512Y153542D01*
X127553Y153477D01*
X127597Y153414D01*
X127644Y153354D01*
X127695Y153295D01*
X127748Y153240D01*
X127803Y153187D01*
X127862Y153136D01*
X127922Y153089D01*
X127985Y153045D01*
X128050Y153004D01*
X128117Y152966D01*
X128185Y152931D01*
X128256Y152900D01*
X128327Y152873D01*
X128400Y152848D01*
X128475Y152828D01*
X128550Y152811D01*
X128625Y152798D01*
X128702Y152789D01*
X128778Y152783D01*
X128855Y152781D01*
X128856Y152781D02*
X131466Y152781D01*
X121805Y156436D02*
X119456Y156436D01*
X121805Y156435D02*
X121889Y156433D01*
X121974Y156427D01*
X122057Y156417D01*
X122141Y156404D01*
X122223Y156386D01*
X122305Y156365D01*
X122386Y156340D01*
X122465Y156312D01*
X122543Y156279D01*
X122619Y156243D01*
X122694Y156204D01*
X122767Y156161D01*
X122838Y156115D01*
X122906Y156066D01*
X122972Y156014D01*
X123036Y155958D01*
X123097Y155900D01*
X123155Y155839D01*
X123211Y155775D01*
X123263Y155709D01*
X123312Y155641D01*
X123358Y155570D01*
X123401Y155497D01*
X123440Y155422D01*
X123476Y155346D01*
X123509Y155268D01*
X123537Y155189D01*
X123562Y155108D01*
X123583Y155026D01*
X123601Y154944D01*
X123614Y154860D01*
X123624Y154777D01*
X123630Y154692D01*
X123632Y154608D01*
X123630Y154524D01*
X123624Y154439D01*
X123614Y154356D01*
X123601Y154272D01*
X123583Y154190D01*
X123562Y154108D01*
X123537Y154027D01*
X123509Y153948D01*
X123476Y153870D01*
X123440Y153794D01*
X123401Y153719D01*
X123358Y153646D01*
X123312Y153575D01*
X123263Y153507D01*
X123211Y153441D01*
X123155Y153377D01*
X123097Y153316D01*
X123036Y153258D01*
X122972Y153202D01*
X122906Y153150D01*
X122838Y153101D01*
X122767Y153055D01*
X122694Y153012D01*
X122619Y152973D01*
X122543Y152937D01*
X122465Y152904D01*
X122386Y152876D01*
X122305Y152851D01*
X122223Y152830D01*
X122141Y152812D01*
X122057Y152799D01*
X121974Y152789D01*
X121889Y152783D01*
X121805Y152781D01*
X119456Y152781D01*
X119456Y157480D01*
X119458Y157557D01*
X119464Y157633D01*
X119473Y157710D01*
X119486Y157786D01*
X119503Y157861D01*
X119523Y157935D01*
X119548Y158008D01*
X119575Y158079D01*
X119606Y158150D01*
X119641Y158218D01*
X119679Y158285D01*
X119720Y158350D01*
X119764Y158413D01*
X119811Y158473D01*
X119862Y158532D01*
X119915Y158587D01*
X119970Y158640D01*
X120029Y158691D01*
X120089Y158738D01*
X120152Y158782D01*
X120217Y158823D01*
X120284Y158861D01*
X120352Y158896D01*
X120423Y158927D01*
X120494Y158954D01*
X120567Y158979D01*
X120642Y158999D01*
X120717Y159016D01*
X120792Y159029D01*
X120869Y159038D01*
X120945Y159044D01*
X121022Y159046D01*
X123111Y159046D01*
X111226Y162179D02*
X111226Y152781D01*
X113837Y152781D01*
X113914Y152783D01*
X113990Y152789D01*
X114067Y152798D01*
X114143Y152811D01*
X114218Y152828D01*
X114292Y152848D01*
X114365Y152873D01*
X114436Y152900D01*
X114507Y152931D01*
X114575Y152966D01*
X114642Y153004D01*
X114707Y153045D01*
X114770Y153089D01*
X114830Y153136D01*
X114889Y153187D01*
X114944Y153240D01*
X114997Y153295D01*
X115048Y153354D01*
X115095Y153414D01*
X115139Y153477D01*
X115180Y153542D01*
X115218Y153609D01*
X115253Y153677D01*
X115284Y153748D01*
X115311Y153819D01*
X115336Y153892D01*
X115356Y153966D01*
X115373Y154041D01*
X115386Y154117D01*
X115395Y154194D01*
X115401Y154270D01*
X115403Y154347D01*
X115403Y157480D01*
X115401Y157557D01*
X115395Y157633D01*
X115386Y157710D01*
X115373Y157786D01*
X115356Y157861D01*
X115336Y157935D01*
X115311Y158008D01*
X115284Y158079D01*
X115253Y158150D01*
X115218Y158218D01*
X115180Y158285D01*
X115139Y158350D01*
X115095Y158413D01*
X115048Y158473D01*
X114997Y158532D01*
X114944Y158587D01*
X114889Y158640D01*
X114830Y158691D01*
X114770Y158738D01*
X114707Y158782D01*
X114642Y158823D01*
X114575Y158861D01*
X114507Y158896D01*
X114436Y158927D01*
X114365Y158954D01*
X114292Y158979D01*
X114218Y158999D01*
X114143Y159016D01*
X114067Y159029D01*
X113990Y159038D01*
X113914Y159044D01*
X113837Y159046D01*
X111226Y159046D01*
X102556Y159046D02*
X100468Y152781D01*
X98379Y159046D01*
X95242Y153303D02*
X95242Y152781D01*
X95242Y153303D02*
X94720Y153303D01*
X94720Y152781D01*
X95242Y152781D01*
X85969Y159830D02*
X85971Y159925D01*
X85977Y160019D01*
X85986Y160113D01*
X85999Y160207D01*
X86016Y160300D01*
X86037Y160392D01*
X86062Y160484D01*
X86090Y160574D01*
X86122Y160663D01*
X86157Y160751D01*
X86196Y160837D01*
X86238Y160922D01*
X86284Y161005D01*
X86333Y161086D01*
X86385Y161165D01*
X86440Y161242D01*
X86499Y161316D01*
X86560Y161388D01*
X86624Y161458D01*
X86691Y161525D01*
X86761Y161589D01*
X86833Y161650D01*
X86907Y161709D01*
X86984Y161764D01*
X87063Y161816D01*
X87144Y161865D01*
X87227Y161911D01*
X87312Y161953D01*
X87398Y161992D01*
X87486Y162027D01*
X87575Y162059D01*
X87665Y162087D01*
X87757Y162112D01*
X87849Y162133D01*
X87942Y162150D01*
X88036Y162163D01*
X88130Y162172D01*
X88224Y162178D01*
X88319Y162180D01*
X88319Y162179D02*
X88427Y162177D01*
X88536Y162171D01*
X88644Y162161D01*
X88751Y162148D01*
X88858Y162130D01*
X88965Y162109D01*
X89070Y162084D01*
X89175Y162055D01*
X89278Y162023D01*
X89380Y161986D01*
X89481Y161946D01*
X89580Y161903D01*
X89678Y161856D01*
X89774Y161805D01*
X89868Y161751D01*
X89960Y161694D01*
X90050Y161633D01*
X90138Y161569D01*
X90223Y161503D01*
X90306Y161433D01*
X90386Y161360D01*
X90464Y161284D01*
X90539Y161206D01*
X90611Y161125D01*
X90680Y161041D01*
X90746Y160955D01*
X90809Y160867D01*
X90868Y160776D01*
X90925Y160684D01*
X90978Y160589D01*
X91027Y160492D01*
X91073Y160394D01*
X91116Y160295D01*
X91155Y160193D01*
X91190Y160091D01*
X86752Y158002D02*
X86683Y158071D01*
X86617Y158142D01*
X86553Y158215D01*
X86492Y158291D01*
X86434Y158370D01*
X86380Y158450D01*
X86328Y158533D01*
X86280Y158617D01*
X86234Y158703D01*
X86193Y158791D01*
X86154Y158881D01*
X86119Y158972D01*
X86088Y159064D01*
X86060Y159157D01*
X86036Y159251D01*
X86016Y159346D01*
X85999Y159442D01*
X85986Y159539D01*
X85977Y159636D01*
X85971Y159733D01*
X85969Y159830D01*
X86753Y158002D02*
X91191Y152781D01*
X85970Y152781D01*
X213431Y150523D02*
X213567Y150357D01*
X213699Y150187D01*
X213827Y150014D01*
X213951Y149838D01*
X214070Y149660D01*
X214185Y149478D01*
X214296Y149294D01*
X214402Y149107D01*
X214504Y148917D01*
X214601Y148725D01*
X214694Y148531D01*
X214782Y148335D01*
X214865Y148137D01*
X214943Y147936D01*
X215017Y147734D01*
X215085Y147530D01*
X215149Y147325D01*
X215208Y147118D01*
X215262Y146910D01*
X215310Y146700D01*
X215354Y146490D01*
X215393Y146278D01*
X215426Y146066D01*
X215454Y145853D01*
X215478Y145639D01*
X215496Y145425D01*
X215509Y145210D01*
X215516Y144995D01*
X215519Y144780D01*
X215516Y144565D01*
X215509Y144350D01*
X215496Y144135D01*
X215478Y143921D01*
X215454Y143707D01*
X215426Y143494D01*
X215393Y143282D01*
X215354Y143070D01*
X215310Y142860D01*
X215262Y142650D01*
X215208Y142442D01*
X215149Y142235D01*
X215085Y142030D01*
X215017Y141826D01*
X214943Y141624D01*
X214865Y141423D01*
X214782Y141225D01*
X214694Y141029D01*
X214601Y140835D01*
X214504Y140643D01*
X214402Y140453D01*
X214296Y140266D01*
X214185Y140082D01*
X214070Y139901D01*
X213951Y139722D01*
X213827Y139546D01*
X213699Y139373D01*
X213567Y139203D01*
X213431Y139037D01*
X208304Y140081D02*
X206215Y140081D01*
X208304Y140081D02*
X208381Y140083D01*
X208457Y140089D01*
X208534Y140098D01*
X208610Y140111D01*
X208685Y140128D01*
X208759Y140148D01*
X208832Y140173D01*
X208903Y140200D01*
X208974Y140231D01*
X209042Y140266D01*
X209109Y140304D01*
X209174Y140345D01*
X209237Y140389D01*
X209297Y140436D01*
X209356Y140487D01*
X209411Y140540D01*
X209464Y140595D01*
X209515Y140654D01*
X209562Y140714D01*
X209606Y140777D01*
X209647Y140842D01*
X209685Y140909D01*
X209720Y140977D01*
X209751Y141048D01*
X209778Y141119D01*
X209803Y141192D01*
X209823Y141266D01*
X209840Y141341D01*
X209853Y141417D01*
X209862Y141494D01*
X209868Y141570D01*
X209870Y141647D01*
X209870Y144780D01*
X209868Y144857D01*
X209862Y144933D01*
X209853Y145010D01*
X209840Y145086D01*
X209823Y145161D01*
X209803Y145235D01*
X209778Y145308D01*
X209751Y145379D01*
X209720Y145450D01*
X209685Y145518D01*
X209647Y145585D01*
X209606Y145650D01*
X209562Y145713D01*
X209515Y145773D01*
X209464Y145832D01*
X209411Y145887D01*
X209356Y145940D01*
X209297Y145991D01*
X209237Y146038D01*
X209174Y146082D01*
X209109Y146123D01*
X209042Y146161D01*
X208974Y146196D01*
X208903Y146227D01*
X208832Y146254D01*
X208759Y146279D01*
X208685Y146299D01*
X208610Y146316D01*
X208534Y146329D01*
X208457Y146338D01*
X208381Y146344D01*
X208304Y146346D01*
X206215Y146346D01*
X200980Y144780D02*
X200983Y144565D01*
X200990Y144350D01*
X201003Y144135D01*
X201021Y143921D01*
X201045Y143707D01*
X201073Y143494D01*
X201106Y143282D01*
X201145Y143070D01*
X201189Y142860D01*
X201237Y142650D01*
X201291Y142442D01*
X201350Y142235D01*
X201414Y142030D01*
X201482Y141826D01*
X201556Y141624D01*
X201634Y141423D01*
X201717Y141225D01*
X201805Y141029D01*
X201898Y140835D01*
X201995Y140643D01*
X202097Y140453D01*
X202203Y140266D01*
X202314Y140082D01*
X202429Y139901D01*
X202548Y139722D01*
X202672Y139546D01*
X202800Y139373D01*
X202932Y139203D01*
X203068Y139037D01*
X200980Y144780D02*
X200983Y144995D01*
X200990Y145210D01*
X201003Y145425D01*
X201021Y145639D01*
X201045Y145853D01*
X201073Y146066D01*
X201106Y146278D01*
X201145Y146490D01*
X201189Y146700D01*
X201237Y146910D01*
X201291Y147118D01*
X201350Y147325D01*
X201414Y147530D01*
X201482Y147734D01*
X201556Y147936D01*
X201634Y148137D01*
X201717Y148335D01*
X201805Y148531D01*
X201898Y148725D01*
X201995Y148917D01*
X202097Y149107D01*
X202203Y149294D01*
X202314Y149478D01*
X202429Y149660D01*
X202548Y149838D01*
X202672Y150014D01*
X202800Y150187D01*
X202932Y150357D01*
X203068Y150523D01*
X189243Y149480D02*
X189148Y149478D01*
X189054Y149472D01*
X188960Y149463D01*
X188866Y149450D01*
X188773Y149433D01*
X188681Y149412D01*
X188589Y149387D01*
X188499Y149359D01*
X188410Y149327D01*
X188322Y149292D01*
X188236Y149253D01*
X188151Y149211D01*
X188068Y149165D01*
X187987Y149116D01*
X187908Y149064D01*
X187831Y149009D01*
X187757Y148950D01*
X187685Y148889D01*
X187615Y148825D01*
X187548Y148758D01*
X187484Y148688D01*
X187423Y148616D01*
X187364Y148542D01*
X187309Y148465D01*
X187257Y148386D01*
X187208Y148305D01*
X187162Y148222D01*
X187120Y148137D01*
X187081Y148051D01*
X187046Y147963D01*
X187014Y147874D01*
X186986Y147784D01*
X186961Y147692D01*
X186940Y147600D01*
X186923Y147507D01*
X186910Y147413D01*
X186901Y147319D01*
X186895Y147225D01*
X186893Y147130D01*
X189243Y149479D02*
X189351Y149477D01*
X189460Y149471D01*
X189568Y149461D01*
X189675Y149448D01*
X189782Y149430D01*
X189889Y149409D01*
X189994Y149384D01*
X190099Y149355D01*
X190202Y149323D01*
X190304Y149286D01*
X190405Y149246D01*
X190504Y149203D01*
X190602Y149156D01*
X190698Y149105D01*
X190792Y149051D01*
X190884Y148994D01*
X190974Y148933D01*
X191062Y148869D01*
X191147Y148803D01*
X191230Y148733D01*
X191310Y148660D01*
X191388Y148584D01*
X191463Y148506D01*
X191535Y148425D01*
X191604Y148341D01*
X191670Y148255D01*
X191733Y148167D01*
X191792Y148076D01*
X191849Y147984D01*
X191902Y147889D01*
X191951Y147792D01*
X191997Y147694D01*
X192040Y147595D01*
X192079Y147493D01*
X192114Y147391D01*
X187676Y145302D02*
X187607Y145371D01*
X187541Y145442D01*
X187477Y145515D01*
X187416Y145591D01*
X187358Y145670D01*
X187304Y145750D01*
X187252Y145833D01*
X187204Y145917D01*
X187158Y146003D01*
X187117Y146091D01*
X187078Y146181D01*
X187043Y146272D01*
X187012Y146364D01*
X186984Y146457D01*
X186960Y146551D01*
X186940Y146646D01*
X186923Y146742D01*
X186910Y146839D01*
X186901Y146936D01*
X186895Y147033D01*
X186893Y147130D01*
X187677Y145302D02*
X192115Y140081D01*
X186894Y140081D01*
X182971Y144780D02*
X182969Y144965D01*
X182962Y145150D01*
X182951Y145334D01*
X182936Y145518D01*
X182916Y145702D01*
X182892Y145886D01*
X182863Y146068D01*
X182830Y146250D01*
X182793Y146431D01*
X182751Y146611D01*
X182705Y146791D01*
X182655Y146969D01*
X182601Y147145D01*
X182542Y147321D01*
X182480Y147495D01*
X182413Y147667D01*
X182342Y147838D01*
X182267Y148007D01*
X182188Y148174D01*
X182158Y148254D01*
X182125Y148333D01*
X182088Y148410D01*
X182048Y148486D01*
X182005Y148560D01*
X181959Y148632D01*
X181909Y148701D01*
X181857Y148769D01*
X181801Y148834D01*
X181743Y148897D01*
X181681Y148956D01*
X181618Y149014D01*
X181551Y149068D01*
X181483Y149119D01*
X181412Y149167D01*
X181339Y149212D01*
X181265Y149254D01*
X181188Y149292D01*
X181110Y149327D01*
X181031Y149359D01*
X180950Y149387D01*
X180868Y149411D01*
X180784Y149432D01*
X180701Y149449D01*
X180616Y149462D01*
X180531Y149471D01*
X180446Y149477D01*
X180360Y149479D01*
X180274Y149477D01*
X180189Y149471D01*
X180104Y149462D01*
X180019Y149449D01*
X179936Y149432D01*
X179852Y149411D01*
X179770Y149387D01*
X179690Y149359D01*
X179610Y149327D01*
X179532Y149292D01*
X179455Y149254D01*
X179381Y149212D01*
X179308Y149167D01*
X179237Y149119D01*
X179169Y149068D01*
X179102Y149014D01*
X179039Y148956D01*
X178978Y148897D01*
X178919Y148834D01*
X178864Y148769D01*
X178811Y148701D01*
X178761Y148632D01*
X178715Y148560D01*
X178672Y148486D01*
X178632Y148410D01*
X178595Y148333D01*
X178562Y148254D01*
X178532Y148174D01*
X178453Y148007D01*
X178378Y147838D01*
X178307Y147667D01*
X178240Y147495D01*
X178178Y147321D01*
X178119Y147145D01*
X178065Y146969D01*
X178015Y146791D01*
X177969Y146611D01*
X177927Y146431D01*
X177890Y146250D01*
X177857Y146068D01*
X177828Y145886D01*
X177804Y145702D01*
X177784Y145518D01*
X177769Y145334D01*
X177758Y145150D01*
X177751Y144965D01*
X177749Y144780D01*
X182971Y144780D02*
X182969Y144595D01*
X182962Y144410D01*
X182951Y144226D01*
X182936Y144042D01*
X182916Y143858D01*
X182892Y143674D01*
X182863Y143492D01*
X182830Y143310D01*
X182793Y143129D01*
X182751Y142949D01*
X182705Y142769D01*
X182655Y142591D01*
X182601Y142415D01*
X182542Y142239D01*
X182480Y142065D01*
X182413Y141893D01*
X182342Y141722D01*
X182267Y141553D01*
X182188Y141386D01*
X182158Y141306D01*
X182125Y141227D01*
X182088Y141150D01*
X182048Y141074D01*
X182005Y141000D01*
X181959Y140928D01*
X181909Y140859D01*
X181856Y140791D01*
X181801Y140726D01*
X181742Y140663D01*
X181681Y140604D01*
X181618Y140546D01*
X181551Y140492D01*
X181483Y140441D01*
X181412Y140393D01*
X181339Y140348D01*
X181265Y140306D01*
X181188Y140268D01*
X181110Y140233D01*
X181031Y140201D01*
X180950Y140173D01*
X180868Y140149D01*
X180784Y140128D01*
X180701Y140111D01*
X180616Y140098D01*
X180531Y140089D01*
X180446Y140083D01*
X180360Y140081D01*
X178533Y141386D02*
X178454Y141553D01*
X178379Y141722D01*
X178308Y141893D01*
X178241Y142065D01*
X178179Y142239D01*
X178120Y142415D01*
X178066Y142591D01*
X178016Y142769D01*
X177970Y142949D01*
X177928Y143129D01*
X177891Y143310D01*
X177858Y143492D01*
X177829Y143674D01*
X177805Y143858D01*
X177785Y144042D01*
X177770Y144226D01*
X177759Y144410D01*
X177752Y144595D01*
X177750Y144780D01*
X178532Y141386D02*
X178562Y141306D01*
X178595Y141227D01*
X178632Y141150D01*
X178672Y141074D01*
X178715Y141000D01*
X178761Y140928D01*
X178811Y140859D01*
X178864Y140791D01*
X178919Y140726D01*
X178978Y140663D01*
X179039Y140604D01*
X179102Y140546D01*
X179169Y140492D01*
X179237Y140441D01*
X179308Y140393D01*
X179381Y140348D01*
X179455Y140306D01*
X179532Y140268D01*
X179610Y140233D01*
X179690Y140201D01*
X179770Y140173D01*
X179852Y140149D01*
X179936Y140128D01*
X180019Y140111D01*
X180104Y140098D01*
X180189Y140089D01*
X180274Y140083D01*
X180360Y140081D01*
X182449Y142169D02*
X178272Y147391D01*
X173827Y147391D02*
X171216Y149479D01*
X171216Y140081D01*
X168606Y140081D02*
X173827Y140081D01*
X162594Y144258D02*
X159462Y144258D01*
X162594Y144258D02*
X162683Y144260D01*
X162771Y144266D01*
X162859Y144275D01*
X162947Y144288D01*
X163034Y144305D01*
X163120Y144325D01*
X163205Y144350D01*
X163290Y144377D01*
X163373Y144409D01*
X163454Y144443D01*
X163534Y144482D01*
X163612Y144523D01*
X163689Y144568D01*
X163763Y144616D01*
X163836Y144667D01*
X163906Y144721D01*
X163973Y144779D01*
X164039Y144839D01*
X164101Y144901D01*
X164161Y144967D01*
X164219Y145034D01*
X164273Y145104D01*
X164324Y145177D01*
X164372Y145251D01*
X164417Y145328D01*
X164458Y145406D01*
X164497Y145486D01*
X164531Y145567D01*
X164563Y145650D01*
X164590Y145735D01*
X164615Y145820D01*
X164635Y145906D01*
X164652Y145993D01*
X164665Y146081D01*
X164674Y146169D01*
X164680Y146257D01*
X164682Y146346D01*
X164683Y146346D02*
X164683Y146868D01*
X164681Y146969D01*
X164675Y147070D01*
X164665Y147171D01*
X164652Y147271D01*
X164634Y147371D01*
X164613Y147470D01*
X164587Y147568D01*
X164558Y147665D01*
X164526Y147761D01*
X164489Y147855D01*
X164449Y147948D01*
X164405Y148040D01*
X164358Y148129D01*
X164307Y148217D01*
X164253Y148303D01*
X164196Y148386D01*
X164136Y148468D01*
X164072Y148546D01*
X164006Y148623D01*
X163936Y148696D01*
X163864Y148767D01*
X163789Y148835D01*
X163711Y148900D01*
X163631Y148962D01*
X163549Y149021D01*
X163464Y149077D01*
X163378Y149129D01*
X163289Y149178D01*
X163198Y149224D01*
X163106Y149265D01*
X163012Y149304D01*
X162917Y149338D01*
X162821Y149369D01*
X162723Y149396D01*
X162625Y149420D01*
X162525Y149439D01*
X162425Y149455D01*
X162325Y149467D01*
X162224Y149475D01*
X162123Y149479D01*
X162021Y149479D01*
X161920Y149475D01*
X161819Y149467D01*
X161719Y149455D01*
X161619Y149439D01*
X161519Y149420D01*
X161421Y149396D01*
X161323Y149369D01*
X161227Y149338D01*
X161132Y149304D01*
X161038Y149265D01*
X160946Y149224D01*
X160855Y149178D01*
X160767Y149129D01*
X160680Y149077D01*
X160595Y149021D01*
X160513Y148962D01*
X160433Y148900D01*
X160355Y148835D01*
X160280Y148767D01*
X160208Y148696D01*
X160138Y148623D01*
X160072Y148546D01*
X160008Y148468D01*
X159948Y148386D01*
X159891Y148303D01*
X159837Y148217D01*
X159786Y148129D01*
X159739Y148040D01*
X159695Y147948D01*
X159655Y147855D01*
X159618Y147761D01*
X159586Y147665D01*
X159557Y147568D01*
X159531Y147470D01*
X159510Y147371D01*
X159492Y147271D01*
X159479Y147171D01*
X159469Y147070D01*
X159463Y146969D01*
X159461Y146868D01*
X159462Y146868D02*
X159462Y144258D01*
X159464Y144132D01*
X159470Y144006D01*
X159479Y143880D01*
X159492Y143755D01*
X159510Y143630D01*
X159530Y143505D01*
X159555Y143381D01*
X159583Y143258D01*
X159615Y143136D01*
X159651Y143015D01*
X159690Y142895D01*
X159733Y142777D01*
X159780Y142660D01*
X159830Y142544D01*
X159884Y142429D01*
X159940Y142317D01*
X160001Y142206D01*
X160064Y142097D01*
X160131Y141990D01*
X160201Y141885D01*
X160275Y141782D01*
X160351Y141682D01*
X160430Y141584D01*
X160512Y141488D01*
X160598Y141395D01*
X160685Y141304D01*
X160776Y141217D01*
X160869Y141131D01*
X160965Y141049D01*
X161063Y140970D01*
X161163Y140894D01*
X161266Y140820D01*
X161371Y140750D01*
X161478Y140683D01*
X161587Y140620D01*
X161698Y140559D01*
X161810Y140503D01*
X161925Y140449D01*
X162041Y140399D01*
X162158Y140352D01*
X162276Y140309D01*
X162396Y140270D01*
X162517Y140234D01*
X162639Y140202D01*
X162762Y140174D01*
X162886Y140149D01*
X163011Y140129D01*
X163136Y140111D01*
X163261Y140098D01*
X163387Y140089D01*
X163513Y140083D01*
X163639Y140081D01*
X155966Y140081D02*
X155444Y140081D01*
X155966Y140081D02*
X155966Y140603D01*
X155444Y140603D01*
X155444Y140081D01*
X156227Y137993D01*
X146700Y140081D02*
X146700Y149479D01*
X144089Y149479D01*
X143989Y149477D01*
X143889Y149471D01*
X143790Y149462D01*
X143690Y149448D01*
X143592Y149431D01*
X143494Y149410D01*
X143397Y149386D01*
X143301Y149357D01*
X143206Y149325D01*
X143113Y149290D01*
X143021Y149251D01*
X142930Y149208D01*
X142842Y149162D01*
X142755Y149112D01*
X142670Y149060D01*
X142587Y149004D01*
X142506Y148945D01*
X142428Y148882D01*
X142352Y148817D01*
X142278Y148749D01*
X142208Y148679D01*
X142140Y148605D01*
X142075Y148529D01*
X142012Y148451D01*
X141953Y148370D01*
X141897Y148287D01*
X141845Y148202D01*
X141795Y148115D01*
X141749Y148027D01*
X141706Y147936D01*
X141667Y147844D01*
X141632Y147751D01*
X141600Y147656D01*
X141571Y147560D01*
X141547Y147463D01*
X141526Y147365D01*
X141509Y147267D01*
X141495Y147167D01*
X141486Y147068D01*
X141480Y146968D01*
X141478Y146868D01*
X141479Y146868D02*
X141479Y142692D01*
X141478Y142692D02*
X141480Y142592D01*
X141486Y142492D01*
X141495Y142393D01*
X141509Y142293D01*
X141526Y142195D01*
X141547Y142097D01*
X141571Y142000D01*
X141600Y141904D01*
X141632Y141809D01*
X141667Y141716D01*
X141706Y141624D01*
X141749Y141533D01*
X141795Y141445D01*
X141845Y141358D01*
X141897Y141273D01*
X141953Y141190D01*
X142012Y141109D01*
X142075Y141031D01*
X142140Y140955D01*
X142208Y140881D01*
X142278Y140811D01*
X142352Y140743D01*
X142428Y140678D01*
X142506Y140615D01*
X142587Y140556D01*
X142670Y140500D01*
X142755Y140448D01*
X142842Y140398D01*
X142930Y140352D01*
X143021Y140309D01*
X143113Y140270D01*
X143206Y140235D01*
X143301Y140203D01*
X143397Y140174D01*
X143494Y140150D01*
X143592Y140129D01*
X143690Y140112D01*
X143790Y140098D01*
X143889Y140089D01*
X143989Y140083D01*
X144089Y140081D01*
X146700Y140081D01*
X135557Y143736D02*
X133207Y143736D01*
X135557Y143735D02*
X135641Y143733D01*
X135726Y143727D01*
X135809Y143717D01*
X135893Y143704D01*
X135975Y143686D01*
X136057Y143665D01*
X136138Y143640D01*
X136217Y143612D01*
X136295Y143579D01*
X136371Y143543D01*
X136446Y143504D01*
X136519Y143461D01*
X136590Y143415D01*
X136658Y143366D01*
X136724Y143314D01*
X136788Y143258D01*
X136849Y143200D01*
X136907Y143139D01*
X136963Y143075D01*
X137015Y143009D01*
X137064Y142941D01*
X137110Y142870D01*
X137153Y142797D01*
X137192Y142722D01*
X137228Y142646D01*
X137261Y142568D01*
X137289Y142489D01*
X137314Y142408D01*
X137335Y142326D01*
X137353Y142244D01*
X137366Y142160D01*
X137376Y142077D01*
X137382Y141992D01*
X137384Y141908D01*
X137382Y141824D01*
X137376Y141739D01*
X137366Y141656D01*
X137353Y141572D01*
X137335Y141490D01*
X137314Y141408D01*
X137289Y141327D01*
X137261Y141248D01*
X137228Y141170D01*
X137192Y141094D01*
X137153Y141019D01*
X137110Y140946D01*
X137064Y140875D01*
X137015Y140807D01*
X136963Y140741D01*
X136907Y140677D01*
X136849Y140616D01*
X136788Y140558D01*
X136724Y140502D01*
X136658Y140450D01*
X136590Y140401D01*
X136519Y140355D01*
X136446Y140312D01*
X136371Y140273D01*
X136295Y140237D01*
X136217Y140204D01*
X136138Y140176D01*
X136057Y140151D01*
X135975Y140130D01*
X135893Y140112D01*
X135809Y140099D01*
X135726Y140089D01*
X135641Y140083D01*
X135557Y140081D01*
X133207Y140081D01*
X133207Y144780D01*
X133208Y144780D02*
X133210Y144857D01*
X133216Y144933D01*
X133225Y145010D01*
X133238Y145086D01*
X133255Y145161D01*
X133275Y145235D01*
X133300Y145308D01*
X133327Y145379D01*
X133358Y145450D01*
X133393Y145518D01*
X133431Y145585D01*
X133472Y145650D01*
X133516Y145713D01*
X133563Y145773D01*
X133614Y145832D01*
X133667Y145887D01*
X133722Y145940D01*
X133781Y145991D01*
X133841Y146038D01*
X133904Y146082D01*
X133969Y146123D01*
X134036Y146161D01*
X134104Y146196D01*
X134175Y146227D01*
X134246Y146254D01*
X134319Y146279D01*
X134394Y146299D01*
X134469Y146316D01*
X134544Y146329D01*
X134621Y146338D01*
X134697Y146344D01*
X134774Y146346D01*
X136862Y146346D01*
X129414Y146346D02*
X127325Y140081D01*
X125237Y146346D01*
X121839Y146346D02*
X121839Y140081D01*
X122100Y148957D02*
X122100Y149479D01*
X121578Y149479D01*
X121578Y148957D01*
X122100Y148957D01*
X114005Y149479D02*
X114005Y140081D01*
X116616Y140081D01*
X116693Y140083D01*
X116769Y140089D01*
X116846Y140098D01*
X116922Y140111D01*
X116997Y140128D01*
X117071Y140148D01*
X117144Y140173D01*
X117215Y140200D01*
X117286Y140231D01*
X117354Y140266D01*
X117421Y140304D01*
X117486Y140345D01*
X117549Y140389D01*
X117609Y140436D01*
X117668Y140487D01*
X117723Y140540D01*
X117776Y140595D01*
X117827Y140654D01*
X117874Y140714D01*
X117918Y140777D01*
X117959Y140842D01*
X117997Y140909D01*
X118032Y140977D01*
X118063Y141048D01*
X118090Y141119D01*
X118115Y141192D01*
X118135Y141266D01*
X118152Y141341D01*
X118165Y141417D01*
X118174Y141494D01*
X118180Y141570D01*
X118182Y141647D01*
X118182Y144780D01*
X118180Y144857D01*
X118174Y144933D01*
X118165Y145010D01*
X118152Y145086D01*
X118135Y145161D01*
X118115Y145235D01*
X118090Y145308D01*
X118063Y145379D01*
X118032Y145450D01*
X117997Y145518D01*
X117959Y145585D01*
X117918Y145650D01*
X117874Y145713D01*
X117827Y145773D01*
X117776Y145832D01*
X117723Y145887D01*
X117668Y145940D01*
X117609Y145991D01*
X117549Y146038D01*
X117486Y146082D01*
X117421Y146123D01*
X117354Y146161D01*
X117286Y146196D01*
X117215Y146227D01*
X117144Y146254D01*
X117071Y146279D01*
X116997Y146299D01*
X116922Y146316D01*
X116846Y146329D01*
X116769Y146338D01*
X116693Y146344D01*
X116616Y146346D01*
X114005Y146346D01*
X102115Y140081D02*
X102026Y140083D01*
X101938Y140089D01*
X101850Y140098D01*
X101762Y140111D01*
X101675Y140128D01*
X101589Y140148D01*
X101504Y140173D01*
X101419Y140200D01*
X101336Y140232D01*
X101255Y140266D01*
X101175Y140305D01*
X101097Y140346D01*
X101020Y140391D01*
X100946Y140439D01*
X100873Y140490D01*
X100803Y140544D01*
X100736Y140602D01*
X100670Y140662D01*
X100608Y140724D01*
X100548Y140790D01*
X100490Y140857D01*
X100436Y140927D01*
X100385Y141000D01*
X100337Y141074D01*
X100292Y141151D01*
X100251Y141229D01*
X100212Y141309D01*
X100178Y141390D01*
X100146Y141473D01*
X100119Y141558D01*
X100094Y141643D01*
X100074Y141729D01*
X100057Y141816D01*
X100044Y141904D01*
X100035Y141992D01*
X100029Y142080D01*
X100027Y142169D01*
X102115Y140081D02*
X102244Y140083D01*
X102373Y140089D01*
X102502Y140098D01*
X102630Y140111D01*
X102758Y140128D01*
X102885Y140149D01*
X103012Y140173D01*
X103138Y140201D01*
X103263Y140233D01*
X103387Y140268D01*
X103510Y140307D01*
X103632Y140350D01*
X103752Y140396D01*
X103871Y140446D01*
X103989Y140499D01*
X104105Y140555D01*
X104219Y140615D01*
X104332Y140678D01*
X104442Y140745D01*
X104551Y140814D01*
X104657Y140887D01*
X104762Y140963D01*
X104864Y141042D01*
X104964Y141124D01*
X105061Y141208D01*
X105156Y141296D01*
X105248Y141386D01*
X104986Y147391D02*
X104984Y147480D01*
X104978Y147568D01*
X104969Y147656D01*
X104956Y147744D01*
X104939Y147831D01*
X104919Y147917D01*
X104894Y148002D01*
X104867Y148087D01*
X104835Y148170D01*
X104801Y148251D01*
X104762Y148331D01*
X104721Y148409D01*
X104676Y148486D01*
X104628Y148560D01*
X104577Y148633D01*
X104523Y148703D01*
X104465Y148770D01*
X104405Y148836D01*
X104343Y148898D01*
X104277Y148958D01*
X104210Y149016D01*
X104140Y149070D01*
X104067Y149121D01*
X103993Y149169D01*
X103916Y149214D01*
X103838Y149255D01*
X103758Y149294D01*
X103677Y149328D01*
X103594Y149360D01*
X103509Y149387D01*
X103424Y149412D01*
X103338Y149432D01*
X103251Y149449D01*
X103163Y149462D01*
X103075Y149471D01*
X102987Y149477D01*
X102898Y149479D01*
X102778Y149477D01*
X102658Y149472D01*
X102539Y149462D01*
X102419Y149450D01*
X102300Y149433D01*
X102182Y149413D01*
X102064Y149389D01*
X101948Y149362D01*
X101832Y149331D01*
X101717Y149297D01*
X101603Y149259D01*
X101490Y149217D01*
X101379Y149172D01*
X101269Y149124D01*
X101161Y149073D01*
X101054Y149018D01*
X100949Y148960D01*
X100846Y148898D01*
X100745Y148834D01*
X100645Y148766D01*
X100548Y148696D01*
X103942Y145564D02*
X104020Y145612D01*
X104096Y145664D01*
X104169Y145718D01*
X104240Y145776D01*
X104309Y145837D01*
X104375Y145901D01*
X104438Y145968D01*
X104498Y146037D01*
X104555Y146109D01*
X104609Y146183D01*
X104659Y146260D01*
X104707Y146339D01*
X104750Y146419D01*
X104791Y146502D01*
X104827Y146586D01*
X104860Y146671D01*
X104889Y146758D01*
X104915Y146847D01*
X104937Y146936D01*
X104954Y147026D01*
X104968Y147116D01*
X104978Y147208D01*
X104984Y147299D01*
X104986Y147391D01*
X101070Y143996D02*
X100992Y143948D01*
X100916Y143896D01*
X100843Y143842D01*
X100772Y143784D01*
X100703Y143723D01*
X100637Y143659D01*
X100574Y143592D01*
X100514Y143523D01*
X100457Y143451D01*
X100403Y143377D01*
X100353Y143300D01*
X100305Y143221D01*
X100262Y143141D01*
X100221Y143058D01*
X100185Y142974D01*
X100152Y142889D01*
X100123Y142802D01*
X100097Y142713D01*
X100075Y142624D01*
X100058Y142534D01*
X100044Y142444D01*
X100034Y142352D01*
X100028Y142261D01*
X100026Y142169D01*
X101070Y143997D02*
X103942Y145563D01*
X96191Y149479D02*
X96191Y140081D01*
X96191Y146346D02*
X93580Y146346D01*
X93503Y146344D01*
X93427Y146338D01*
X93350Y146329D01*
X93274Y146316D01*
X93200Y146299D01*
X93125Y146279D01*
X93052Y146254D01*
X92981Y146227D01*
X92910Y146196D01*
X92842Y146161D01*
X92775Y146123D01*
X92710Y146082D01*
X92647Y146038D01*
X92587Y145991D01*
X92528Y145940D01*
X92473Y145887D01*
X92420Y145832D01*
X92369Y145773D01*
X92322Y145713D01*
X92278Y145650D01*
X92237Y145585D01*
X92199Y145518D01*
X92164Y145450D01*
X92133Y145379D01*
X92106Y145308D01*
X92081Y145235D01*
X92061Y145161D01*
X92044Y145086D01*
X92031Y145010D01*
X92022Y144934D01*
X92016Y144857D01*
X92014Y144780D01*
X92014Y140081D01*
X86180Y143736D02*
X83830Y143736D01*
X86180Y143735D02*
X86264Y143733D01*
X86349Y143727D01*
X86432Y143717D01*
X86516Y143704D01*
X86598Y143686D01*
X86680Y143665D01*
X86761Y143640D01*
X86840Y143612D01*
X86918Y143579D01*
X86994Y143543D01*
X87069Y143504D01*
X87142Y143461D01*
X87213Y143415D01*
X87281Y143366D01*
X87347Y143314D01*
X87411Y143258D01*
X87472Y143200D01*
X87530Y143139D01*
X87586Y143075D01*
X87638Y143009D01*
X87687Y142941D01*
X87733Y142870D01*
X87776Y142797D01*
X87815Y142722D01*
X87851Y142646D01*
X87884Y142568D01*
X87912Y142489D01*
X87937Y142408D01*
X87958Y142326D01*
X87976Y142244D01*
X87989Y142160D01*
X87999Y142077D01*
X88005Y141992D01*
X88007Y141908D01*
X88005Y141824D01*
X87999Y141739D01*
X87989Y141656D01*
X87976Y141572D01*
X87958Y141490D01*
X87937Y141408D01*
X87912Y141327D01*
X87884Y141248D01*
X87851Y141170D01*
X87815Y141094D01*
X87776Y141019D01*
X87733Y140946D01*
X87687Y140875D01*
X87638Y140807D01*
X87586Y140741D01*
X87530Y140677D01*
X87472Y140616D01*
X87411Y140558D01*
X87347Y140502D01*
X87281Y140450D01*
X87213Y140401D01*
X87142Y140355D01*
X87069Y140312D01*
X86994Y140273D01*
X86918Y140237D01*
X86840Y140204D01*
X86761Y140176D01*
X86680Y140151D01*
X86598Y140130D01*
X86516Y140112D01*
X86432Y140099D01*
X86349Y140089D01*
X86264Y140083D01*
X86180Y140081D01*
X83830Y140081D01*
X83830Y144780D01*
X83832Y144857D01*
X83838Y144933D01*
X83847Y145010D01*
X83860Y145086D01*
X83877Y145161D01*
X83897Y145235D01*
X83922Y145308D01*
X83949Y145379D01*
X83980Y145450D01*
X84015Y145518D01*
X84053Y145585D01*
X84094Y145650D01*
X84138Y145713D01*
X84185Y145773D01*
X84236Y145832D01*
X84289Y145887D01*
X84344Y145940D01*
X84403Y145991D01*
X84463Y146038D01*
X84526Y146082D01*
X84591Y146123D01*
X84658Y146161D01*
X84726Y146196D01*
X84797Y146227D01*
X84868Y146254D01*
X84941Y146279D01*
X85016Y146299D01*
X85091Y146316D01*
X85166Y146329D01*
X85243Y146338D01*
X85319Y146344D01*
X85396Y146346D01*
X87485Y146346D01*
X75600Y149479D02*
X75600Y140081D01*
X78211Y140081D01*
X78288Y140083D01*
X78364Y140089D01*
X78441Y140098D01*
X78517Y140111D01*
X78592Y140128D01*
X78666Y140148D01*
X78739Y140173D01*
X78810Y140200D01*
X78881Y140231D01*
X78949Y140266D01*
X79016Y140304D01*
X79081Y140345D01*
X79144Y140389D01*
X79204Y140436D01*
X79263Y140487D01*
X79318Y140540D01*
X79371Y140595D01*
X79422Y140654D01*
X79469Y140714D01*
X79513Y140777D01*
X79554Y140842D01*
X79592Y140909D01*
X79627Y140977D01*
X79658Y141048D01*
X79685Y141119D01*
X79710Y141192D01*
X79730Y141266D01*
X79747Y141341D01*
X79760Y141417D01*
X79769Y141494D01*
X79775Y141570D01*
X79777Y141647D01*
X79777Y144780D01*
X79775Y144857D01*
X79769Y144933D01*
X79760Y145010D01*
X79747Y145086D01*
X79730Y145161D01*
X79710Y145235D01*
X79685Y145308D01*
X79658Y145379D01*
X79627Y145450D01*
X79592Y145518D01*
X79554Y145585D01*
X79513Y145650D01*
X79469Y145713D01*
X79422Y145773D01*
X79371Y145832D01*
X79318Y145887D01*
X79263Y145940D01*
X79204Y145991D01*
X79144Y146038D01*
X79081Y146082D01*
X79016Y146123D01*
X78949Y146161D01*
X78881Y146196D01*
X78810Y146227D01*
X78739Y146254D01*
X78666Y146279D01*
X78592Y146299D01*
X78517Y146316D01*
X78441Y146329D01*
X78364Y146338D01*
X78288Y146344D01*
X78211Y146346D01*
X75600Y146346D01*
X71502Y144258D02*
X71502Y142169D01*
X71502Y144258D02*
X71500Y144348D01*
X71494Y144437D01*
X71485Y144527D01*
X71471Y144616D01*
X71454Y144704D01*
X71433Y144791D01*
X71408Y144878D01*
X71379Y144963D01*
X71347Y145047D01*
X71312Y145129D01*
X71272Y145210D01*
X71230Y145289D01*
X71184Y145366D01*
X71134Y145441D01*
X71082Y145514D01*
X71026Y145585D01*
X70968Y145653D01*
X70906Y145718D01*
X70842Y145781D01*
X70775Y145841D01*
X70706Y145898D01*
X70634Y145952D01*
X70560Y146003D01*
X70484Y146051D01*
X70406Y146095D01*
X70326Y146136D01*
X70244Y146174D01*
X70161Y146208D01*
X70076Y146238D01*
X69990Y146265D01*
X69904Y146288D01*
X69816Y146307D01*
X69727Y146322D01*
X69638Y146334D01*
X69549Y146342D01*
X69459Y146346D01*
X69369Y146346D01*
X69279Y146342D01*
X69190Y146334D01*
X69101Y146322D01*
X69012Y146307D01*
X68924Y146288D01*
X68838Y146265D01*
X68752Y146238D01*
X68667Y146208D01*
X68584Y146174D01*
X68502Y146136D01*
X68422Y146095D01*
X68344Y146051D01*
X68268Y146003D01*
X68194Y145952D01*
X68122Y145898D01*
X68053Y145841D01*
X67986Y145781D01*
X67922Y145718D01*
X67860Y145653D01*
X67802Y145585D01*
X67746Y145514D01*
X67694Y145441D01*
X67644Y145366D01*
X67598Y145289D01*
X67556Y145210D01*
X67516Y145129D01*
X67481Y145047D01*
X67449Y144963D01*
X67420Y144878D01*
X67395Y144791D01*
X67374Y144704D01*
X67357Y144616D01*
X67343Y144527D01*
X67334Y144437D01*
X67328Y144348D01*
X67326Y144258D01*
X67325Y144258D02*
X67325Y142169D01*
X67326Y142169D02*
X67328Y142079D01*
X67334Y141990D01*
X67343Y141900D01*
X67357Y141811D01*
X67374Y141723D01*
X67395Y141636D01*
X67420Y141549D01*
X67449Y141464D01*
X67481Y141380D01*
X67516Y141298D01*
X67556Y141217D01*
X67598Y141138D01*
X67644Y141061D01*
X67694Y140986D01*
X67746Y140913D01*
X67802Y140842D01*
X67860Y140774D01*
X67922Y140709D01*
X67986Y140646D01*
X68053Y140586D01*
X68122Y140529D01*
X68194Y140475D01*
X68268Y140424D01*
X68344Y140376D01*
X68422Y140332D01*
X68502Y140291D01*
X68584Y140253D01*
X68667Y140219D01*
X68752Y140189D01*
X68838Y140162D01*
X68924Y140139D01*
X69012Y140120D01*
X69101Y140105D01*
X69190Y140093D01*
X69279Y140085D01*
X69369Y140081D01*
X69459Y140081D01*
X69549Y140085D01*
X69638Y140093D01*
X69727Y140105D01*
X69816Y140120D01*
X69904Y140139D01*
X69990Y140162D01*
X70076Y140189D01*
X70161Y140219D01*
X70244Y140253D01*
X70326Y140291D01*
X70406Y140332D01*
X70484Y140376D01*
X70560Y140424D01*
X70634Y140475D01*
X70706Y140529D01*
X70775Y140586D01*
X70842Y140646D01*
X70906Y140709D01*
X70968Y140774D01*
X71026Y140842D01*
X71082Y140913D01*
X71134Y140986D01*
X71184Y141061D01*
X71230Y141138D01*
X71272Y141217D01*
X71312Y141298D01*
X71347Y141380D01*
X71379Y141464D01*
X71408Y141549D01*
X71433Y141636D01*
X71454Y141723D01*
X71471Y141811D01*
X71485Y141900D01*
X71494Y141990D01*
X71500Y142079D01*
X71502Y142169D01*
X63073Y140081D02*
X63073Y147913D01*
X63072Y147913D02*
X63070Y147990D01*
X63064Y148066D01*
X63055Y148143D01*
X63042Y148219D01*
X63025Y148294D01*
X63005Y148368D01*
X62980Y148441D01*
X62953Y148512D01*
X62922Y148583D01*
X62887Y148651D01*
X62849Y148718D01*
X62808Y148783D01*
X62764Y148846D01*
X62717Y148906D01*
X62666Y148965D01*
X62613Y149020D01*
X62558Y149073D01*
X62499Y149124D01*
X62439Y149171D01*
X62376Y149215D01*
X62311Y149256D01*
X62244Y149294D01*
X62176Y149329D01*
X62105Y149360D01*
X62034Y149387D01*
X61961Y149412D01*
X61887Y149432D01*
X61812Y149449D01*
X61736Y149462D01*
X61659Y149471D01*
X61583Y149477D01*
X61506Y149479D01*
X60984Y149479D01*
X60984Y146346D02*
X64117Y146346D01*
X57891Y147913D02*
X57891Y140081D01*
X57891Y147913D02*
X57889Y147990D01*
X57883Y148066D01*
X57874Y148143D01*
X57861Y148219D01*
X57844Y148294D01*
X57824Y148368D01*
X57799Y148441D01*
X57772Y148512D01*
X57741Y148583D01*
X57706Y148651D01*
X57668Y148718D01*
X57627Y148783D01*
X57583Y148846D01*
X57536Y148906D01*
X57485Y148965D01*
X57432Y149020D01*
X57377Y149073D01*
X57318Y149124D01*
X57258Y149171D01*
X57195Y149215D01*
X57130Y149256D01*
X57063Y149294D01*
X56995Y149329D01*
X56924Y149360D01*
X56853Y149387D01*
X56780Y149412D01*
X56706Y149432D01*
X56631Y149449D01*
X56555Y149462D01*
X56478Y149471D01*
X56402Y149477D01*
X56325Y149479D01*
X55803Y149479D01*
X55803Y146346D02*
X58935Y146346D01*
M02*
