M48
;GenerationSoftware,Autodesk,EAGLE,9.3.0*%
;CreationDate,2019-04-23T23:53:50Z*%
FMAT,2
ICI,OFF
METRIC,TZ,000.000
T4C0.356
T3C1.016
T2C1.100
T1C2.300
%
G90
M71
T1
X12192Y4065
X5192Y4865
X19192Y4865
T2
X8787Y10385
X15597Y7935
X8787Y7935
X15597Y10385
X13492Y7935
X10902Y7935
X13492Y10385
X11292Y10385
T3
X2032Y17526
X4572Y17526
X7112Y17526
X9652Y17526
X12192Y17526
X14732Y17526
X17272Y17526
X19812Y17526
X22352Y17526
T4
X8890Y5080
X12497Y12802
X8738Y13310
X10414Y12700
X3048Y13716
X6096Y13716
M30